0
SECTION
2
HEADER
9
$ANGDIR
70
1
9
$AUNITS
70
0
9
$PROJECTNAME
1
Schematics_MedidorDeTensionAC
9
$TDCREATE
40
2459975.54832676
9
$INSUNITS
70
4
0
ENDSEC
0
SECTION
2
ENTITIES
0
POLYLINE
66
1
8
outline
10
0.0
20
0.0
30
0.0
70
1
0
VERTEX
8
0
10
0
20
5
30
0
0
VERTEX
8
0
10
0.019025
20
4.564221875
30
0
0
VERTEX
8
0
10
0.0759625
20
4.131759375000001
30
0
0
VERTEX
8
0
10
0.170371875
20
3.70590625
30
0
0
VERTEX
8
0
10
0.3015375
20
3.2899000000000003
30
0
0
VERTEX
8
0
10
0.4684625
20
2.886909375
30
0
0
VERTEX
8
0
10
0.669871875
20
2.5
30
0
0
VERTEX
8
0
10
0.904240625
20
2.13211875
30
0
0
VERTEX
8
0
10
1.1697781250000001
20
1.7860625
30
0
0
VERTEX
8
0
10
1.464465625
20
1.464465625
30
0
0
VERTEX
8
0
10
1.7860625
20
1.1697781250000001
30
0
0
VERTEX
8
0
10
2.13211875
20
0.904240625
30
0
0
VERTEX
8
0
10
2.5
20
0.669871875
30
0
0
VERTEX
8
0
10
2.886909375
20
0.4684625
30
0
0
VERTEX
8
0
10
3.2899000000000003
20
0.3015375
30
0
0
VERTEX
8
0
10
3.70590625
20
0.170371875
30
0
0
VERTEX
8
0
10
4.131759375000001
20
0.0759625
30
0
0
VERTEX
8
0
10
4.564221875
20
0.019025
30
0
0
VERTEX
8
0
10
5
20
0
30
0
0
VERTEX
8
0
10
70
20
0
30
0
0
VERTEX
8
0
10
70.435778125
20
0.019025
30
0
0
VERTEX
8
0
10
70.868240625
20
0.0759625
30
0
0
VERTEX
8
0
10
71.29409375
20
0.170371875
30
0
0
VERTEX
8
0
10
71.7101
20
0.3015375
30
0
0
VERTEX
8
0
10
72.113090625
20
0.4684625
30
0
0
VERTEX
8
0
10
72.5
20
0.669871875
30
0
0
VERTEX
8
0
10
72.86788125000001
20
0.904240625
30
0
0
VERTEX
8
0
10
73.2139375
20
1.1697781250000001
30
0
0
VERTEX
8
0
10
73.535534375
20
1.464465625
30
0
0
VERTEX
8
0
10
73.830221875
20
1.7860625
30
0
0
VERTEX
8
0
10
74.095759375
20
2.13211875
30
0
0
VERTEX
8
0
10
74.330128125
20
2.5
30
0
0
VERTEX
8
0
10
74.5315375
20
2.886909375
30
0
0
VERTEX
8
0
10
74.6984625
20
3.2899000000000003
30
0
0
VERTEX
8
0
10
74.829628125
20
3.70590625
30
0
0
VERTEX
8
0
10
74.9240375
20
4.131759375000001
30
0
0
VERTEX
8
0
10
74.980975
20
4.564221875
30
0
0
VERTEX
8
0
10
75
20
5
30
0
0
VERTEX
8
0
10
75
20
45
30
0
0
VERTEX
8
0
10
74.980975
20
45.435778125
30
0
0
VERTEX
8
0
10
74.9240375
20
45.868240625000006
30
0
0
VERTEX
8
0
10
74.829628125
20
46.29409375
30
0
0
VERTEX
8
0
10
74.6984625
20
46.710100000000004
30
0
0
VERTEX
8
0
10
74.5315375
20
47.113090625000005
30
0
0
VERTEX
8
0
10
74.330128125
20
47.5
30
0
0
VERTEX
8
0
10
74.095759375
20
47.86788125
30
0
0
VERTEX
8
0
10
73.830221875
20
48.2139375
30
0
0
VERTEX
8
0
10
73.535534375
20
48.535534375000005
30
0
0
VERTEX
8
0
10
73.2139375
20
48.830221875
30
0
0
VERTEX
8
0
10
72.86788125000001
20
49.095759375
30
0
0
VERTEX
8
0
10
72.5
20
49.330128125
30
0
0
VERTEX
8
0
10
72.113090625
20
49.5315375
30
0
0
VERTEX
8
0
10
71.7101
20
49.698462500000005
30
0
0
VERTEX
8
0
10
71.29409375
20
49.829628125
30
0
0
VERTEX
8
0
10
70.868240625
20
49.924037500000004
30
0
0
VERTEX
8
0
10
70.435778125
20
49.980975
30
0
0
VERTEX
8
0
10
70
20
50
30
0
0
VERTEX
8
0
10
5
20
50
30
0
0
VERTEX
8
0
10
4.564221875
20
49.980975
30
0
0
VERTEX
8
0
10
4.131759375000001
20
49.924037500000004
30
0
0
VERTEX
8
0
10
3.70590625
20
49.829628125
30
0
0
VERTEX
8
0
10
3.2899000000000003
20
49.698462500000005
30
0
0
VERTEX
8
0
10
2.886909375
20
49.5315375
30
0
0
VERTEX
8
0
10
2.5
20
49.330128125
30
0
0
VERTEX
8
0
10
2.13211875
20
49.095759375
30
0
0
VERTEX
8
0
10
1.7860625
20
48.830221875
30
0
0
VERTEX
8
0
10
1.464465625
20
48.535534375000005
30
0
0
VERTEX
8
0
10
1.1697781250000001
20
48.2139375
30
0
0
VERTEX
8
0
10
0.904240625
20
47.86788125
30
0
0
VERTEX
8
0
10
0.669871875
20
47.5
30
0
0
VERTEX
8
0
10
0.4684625
20
47.113090625000005
30
0
0
VERTEX
8
0
10
0.3015375
20
46.710100000000004
30
0
0
VERTEX
8
0
10
0.170371875
20
46.29409375
30
0
0
VERTEX
8
0
10
0.0759625
20
45.868240625000006
30
0
0
VERTEX
8
0
10
0.019025
20
45.435778125
30
0
0
VERTEX
8
0
10
0
20
45
30
0
0
VERTEX
8
0
10
0
20
5
30
0
0
SEQEND
0
POLYLINE
66
1
8
1_copper
10
0.0
20
0.0
30
0.0
70
1
0
VERTEX
8
0
10
22.9604
20
40.23645625
30
0
0
VERTEX
8
0
10
22.9604
20
40.78354375
30
0
0
VERTEX
8
0
10
22.573543750000002
20
41.1704
30
0
0
VERTEX
8
0
10
22.026456250000003
20
41.1704
30
0
0
VERTEX
8
0
10
21.6396
20
40.78354375
30
0
0
VERTEX
8
0
10
21.6396
20
40.23645625
30
0
0
VERTEX
8
0
10
22.026456250000003
20
39.8496
30
0
0
VERTEX
8
0
10
22.573543750000002
20
39.8496
30
0
0
SEQEND
0
POLYLINE
66
1
8
16_copper
10
0.0
20
0.0
30
0.0
70
1
0
VERTEX
8
0
10
22.59894375
20
39.875
30
0
0
VERTEX
8
0
10
32.46
20
39.875
30
0
42
0.8489227607721016
0
VERTEX
8
0
10
32.6632
20
41.1108375
30
0
0
VERTEX
8
0
10
32.6632
20
42.915831250000004
30
0
0
VERTEX
8
0
10
33.544168750000004
20
43.796800000000005
30
0
0
VERTEX
8
0
10
46.8618
20
43.796800000000005
30
0
0
VERTEX
8
0
10
46.8618
20
42.940000000000005
30
0
0
VERTEX
8
0
10
46.765
20
42.940000000000005
30
0
0
VERTEX
8
0
10
46.765
20
40.74
30
0
0
VERTEX
8
0
10
47.365
20
40.74
30
0
0
VERTEX
8
0
10
47.365
20
42.940000000000005
30
0
0
VERTEX
8
0
10
47.2682
20
42.940000000000005
30
0
0
VERTEX
8
0
10
47.2682
20
44
30
0
42
0.41421356237309503
0
VERTEX
8
0
10
47.065000000000005
20
44.2032
30
0
0
VERTEX
8
0
10
33.46
20
44.2032
30
0
42
0.198912367379658
0
VERTEX
8
0
10
33.316315625
20
44.143684375
30
0
0
VERTEX
8
0
10
32.316315625
20
43.143684375
30
0
42
0.198912367379658
0
VERTEX
8
0
10
32.2568
20
43
30
0
0
VERTEX
8
0
10
32.2568
20
41.145
30
0
0
VERTEX
8
0
10
22.59894375
20
41.145
30
0
0
VERTEX
8
0
10
22.573543750000002
20
41.1704
30
0
0
VERTEX
8
0
10
22.026456250000003
20
41.1704
30
0
0
VERTEX
8
0
10
21.6396
20
40.78354375
30
0
0
VERTEX
8
0
10
21.6396
20
40.23645625
30
0
0
VERTEX
8
0
10
22.026456250000003
20
39.8496
30
0
0
VERTEX
8
0
10
22.573543750000002
20
39.8496
30
0
0
SEQEND
0
POLYLINE
66
1
8
1_copper
10
0.0
20
0.0
30
0.0
70
1
0
VERTEX
8
0
10
9.671153125
20
29.117396875
30
0
42
0.9243912652821668
0
VERTEX
8
0
10
9.577146875
20
31.51
30
0
0
VERTEX
8
0
10
7.082853125000001
20
31.51
30
0
42
0.9614824550963637
0
VERTEX
8
0
10
7.082853125000001
20
29.110000000000003
30
0
0
VERTEX
8
0
10
9.577146875
20
29.110000000000003
30
0
0
SEQEND
0
POLYLINE
66
1
8
1_copper
10
0.0
20
0.0
30
0.0
70
1
0
VERTEX
8
0
10
22.9604
20
30.07645625
30
0
0
VERTEX
8
0
10
22.9604
20
30.623543750000003
30
0
0
VERTEX
8
0
10
22.573543750000002
20
31.0104
30
0
0
VERTEX
8
0
10
22.026456250000003
20
31.0104
30
0
0
VERTEX
8
0
10
21.6396
20
30.623543750000003
30
0
0
VERTEX
8
0
10
21.6396
20
30.07645625
30
0
0
VERTEX
8
0
10
22.026456250000003
20
29.689600000000002
30
0
0
VERTEX
8
0
10
22.573543750000002
20
29.689600000000002
30
0
0
SEQEND
0
POLYLINE
66
1
8
16_copper
10
0.0
20
0.0
30
0.0
70
1
0
VERTEX
8
0
10
9.671153125
20
29.117396875
30
0
42
0.22929732992273447
0
VERTEX
8
0
10
10.5521625
20
29.681359375000003
30
0
0
VERTEX
8
0
10
22.0019125
20
29.71414375
30
0
0
VERTEX
8
0
10
22.026456250000003
20
29.689600000000002
30
0
0
VERTEX
8
0
10
22.573543750000002
20
29.689600000000002
30
0
0
VERTEX
8
0
10
22.9604
20
30.07645625
30
0
0
VERTEX
8
0
10
22.9604
20
30.623543750000003
30
0
0
VERTEX
8
0
10
22.573543750000002
20
31.0104
30
0
0
VERTEX
8
0
10
22.026456250000003
20
31.0104
30
0
0
VERTEX
8
0
10
22.0002
20
30.98414375
30
0
0
VERTEX
8
0
10
10.544378125
20
30.951343750000003
30
0
42
0.24676574607623136
0
VERTEX
8
0
10
9.577146875
20
31.51
30
0
0
VERTEX
8
0
10
7.082853125000001
20
31.51
30
0
42
0.9614824550963637
0
VERTEX
8
0
10
7.082853125000001
20
29.110000000000003
30
0
0
VERTEX
8
0
10
9.577146875
20
29.110000000000003
30
0
0
SEQEND
0
POLYLINE
66
1
8
1_copper
10
0.0
20
0.0
30
0.0
70
1
0
VERTEX
8
0
10
38.7004
20
31.416456250000003
30
0
0
VERTEX
8
0
10
38.7004
20
31.963543750000003
30
0
0
VERTEX
8
0
10
38.31354375
20
32.3504
30
0
0
VERTEX
8
0
10
37.766456250000005
20
32.3504
30
0
0
VERTEX
8
0
10
37.3796
20
31.963543750000003
30
0
0
VERTEX
8
0
10
37.3796
20
31.416456250000003
30
0
0
VERTEX
8
0
10
37.766456250000005
20
31.029600000000002
30
0
0
VERTEX
8
0
10
38.31354375
20
31.029600000000002
30
0
0
SEQEND
0
POLYLINE
66
1
8
1_copper
10
0.0
20
0.0
30
0.0
70
1
0
VERTEX
8
0
10
9.671153125
20
24.117396875
30
0
42
0.9243912652821668
0
VERTEX
8
0
10
9.577146875
20
26.51
30
0
0
VERTEX
8
0
10
7.082853125000001
20
26.51
30
0
42
0.9614824550963637
0
VERTEX
8
0
10
7.082853125000001
20
24.11
30
0
0
VERTEX
8
0
10
9.577146875
20
24.11
30
0
0
SEQEND
0
POLYLINE
66
1
8
16_copper
10
0.0
20
0.0
30
0.0
70
1
0
VERTEX
8
0
10
32.798365625
20
24.84893125
30
0
0
VERTEX
8
0
10
32.854190625
20
24.89474375
30
0
0
VERTEX
8
0
10
32.90525625
20
24.945809375
30
0
0
VERTEX
8
0
10
32.951068750000005
20
25.001634375000002
30
0
42
0.16958581814910006
0
VERTEX
8
0
10
33.095
20
25.403890625000003
30
0
0
VERTEX
8
0
10
33.095
20
31.055
30
0
0
VERTEX
8
0
10
37.405
20
31.055
30
0
0
VERTEX
8
0
10
37.405
20
29.16
30
0
42
0.198912367379658
0
VERTEX
8
0
10
37.590987500000004
20
28.7109875
30
0
0
VERTEX
8
0
10
40.2029875
20
26.0989875
30
0
42
0.198912367379658
0
VERTEX
8
0
10
40.652
20
25.913
30
0
0
VERTEX
8
0
10
45.160000000000004
20
25.913
30
0
42
0.9999999999999999
0
VERTEX
8
0
10
45.160000000000004
20
27.183
30
0
0
VERTEX
8
0
10
40.915025
20
27.183
30
0
0
VERTEX
8
0
10
38.675000000000004
20
29.423025000000003
30
0
0
VERTEX
8
0
10
38.675000000000004
20
31.275475
30
0
42
0.25265258515072714
0
VERTEX
8
0
10
38.7004
20
31.877521875000003
30
0
0
VERTEX
8
0
10
38.7004
20
31.963543750000003
30
0
0
VERTEX
8
0
10
38.31354375
20
32.3504
30
0
0
VERTEX
8
0
10
37.766456250000005
20
32.3504
30
0
0
VERTEX
8
0
10
37.74105625
20
32.325
30
0
0
VERTEX
8
0
10
33.181337500000005
20
32.325
30
0
42
0.16129868845550677
0
VERTEX
8
0
10
33.095
20
32.7145375
30
0
0
VERTEX
8
0
10
33.095
20
37.97
30
0
42
0.9999999999999999
0
VERTEX
8
0
10
31.825000000000003
20
37.97
30
0
0
VERTEX
8
0
10
31.825000000000003
20
25.945
30
0
0
VERTEX
8
0
10
10.548265625
20
25.945
30
0
42
0.24841059184705958
0
VERTEX
8
0
10
9.577146875
20
26.51
30
0
0
VERTEX
8
0
10
7.082853125000001
20
26.51
30
0
42
0.9614824550963637
0
VERTEX
8
0
10
7.082853125000001
20
24.11
30
0
0
VERTEX
8
0
10
9.577146875
20
24.11
30
0
42
0.24841059184705958
0
VERTEX
8
0
10
10.548265625
20
24.675
30
0
0
VERTEX
8
0
10
25.765
20
24.675
30
0
0
VERTEX
8
0
10
25.765
20
17.963025000000002
30
0
0
VERTEX
8
0
10
24.336975000000002
20
16.535
30
0
0
VERTEX
8
0
10
20.400000000000002
20
16.535
30
0
42
0.198912367379658
0
VERTEX
8
0
10
19.9509875
20
16.3490125
30
0
0
VERTEX
8
0
10
17.350987500000002
20
13.749012500000001
30
0
42
0.198912367379658
0
VERTEX
8
0
10
17.165
20
13.3
30
0
0
VERTEX
8
0
10
17.165
20
9
30
0
42
0.198912367379658
0
VERTEX
8
0
10
17.350987500000002
20
8.5509875
30
0
0
VERTEX
8
0
10
19.8609875
20
6.0409875
30
0
42
0.198912367379658
0
VERTEX
8
0
10
20.310000000000002
20
5.855
30
0
0
VERTEX
8
0
10
32.46
20
5.855
30
0
42
0.41421356237309503
0
VERTEX
8
0
10
33.095
20
6.49
30
0
0
VERTEX
8
0
10
33.095
20
9.030000000000001
30
0
42
0.9999999999999999
0
VERTEX
8
0
10
31.825000000000003
20
9.030000000000001
30
0
0
VERTEX
8
0
10
31.825000000000003
20
7.125
30
0
0
VERTEX
8
0
10
20.573025
20
7.125
30
0
0
VERTEX
8
0
10
18.435000000000002
20
9.263025
30
0
0
VERTEX
8
0
10
18.435000000000002
20
13.036975
30
0
0
VERTEX
8
0
10
20.663025
20
15.265
30
0
0
VERTEX
8
0
10
24.6
20
15.265
30
0
42
0.198912367379658
0
VERTEX
8
0
10
25.0490125
20
15.4509875
30
0
0
VERTEX
8
0
10
26.8490125
20
17.2509875
30
0
42
0.198912367379658
0
VERTEX
8
0
10
27.035
20
17.7
30
0
0
VERTEX
8
0
10
27.035
20
24.675
30
0
0
VERTEX
8
0
10
32.33
20
24.675
30
0
0
VERTEX
8
0
10
32.3379625
20
24.67539375
30
0
0
VERTEX
8
0
10
32.345921875
20
24.6752
30
0
0
VERTEX
8
0
10
32.369340625
20
24.676953125
30
0
0
VERTEX
8
0
10
32.392900000000004
20
24.678121875000002
30
0
0
VERTEX
8
0
10
32.400803125
20
24.67930625
30
0
0
VERTEX
8
0
10
32.408725000000004
20
24.6799
30
0
0
VERTEX
8
0
10
32.431871875
20
24.683965625000003
30
0
0
VERTEX
8
0
10
32.455184375
20
24.687462500000002
30
0
0
VERTEX
8
0
10
32.46290625
20
24.68941875
30
0
0
VERTEX
8
0
10
32.470753125
20
24.690796875
30
0
0
VERTEX
8
0
10
32.493434375
20
24.69715
30
0
0
VERTEX
8
0
10
32.516234375
20
24.702925
30
0
0
VERTEX
8
0
10
32.52371875
20
24.705634375000002
30
0
0
VERTEX
8
0
10
32.531396875
20
24.707784375000003
30
0
0
VERTEX
8
0
10
32.55330625
20
24.716340625
30
0
0
VERTEX
8
0
10
32.575453125
20
24.72435625
30
0
0
VERTEX
8
0
10
32.582653125
20
24.727803125
30
0
0
VERTEX
8
0
10
32.5900625
20
24.730696875
30
0
0
VERTEX
8
0
10
32.610971875000004
20
24.741359375000002
30
0
0
VERTEX
8
0
10
32.632259375000004
20
24.75155
30
0
0
VERTEX
8
0
10
32.63909375
20
24.7557
30
0
0
VERTEX
8
0
10
32.646165625
20
24.75930625
30
0
0
VERTEX
8
0
10
32.662265625
20
24.76964375
30
0
0
VERTEX
8
0
10
32.674631250000004
20
24.774765625
30
0
0
VERTEX
8
0
10
32.738321875000004
20
24.808809375000003
30
0
0
SEQEND
0
POLYLINE
66
1
8
1_copper
10
0.0
20
0.0
30
0.0
70
1
0
VERTEX
8
0
10
22.9604
20
9.85645625
30
0
0
VERTEX
8
0
10
22.9604
20
10.40354375
30
0
0
VERTEX
8
0
10
22.573543750000002
20
10.7904
30
0
0
VERTEX
8
0
10
22.026456250000003
20
10.7904
30
0
0
VERTEX
8
0
10
21.6396
20
10.40354375
30
0
0
VERTEX
8
0
10
21.6396
20
9.85645625
30
0
0
VERTEX
8
0
10
22.026456250000003
20
9.4696
30
0
0
VERTEX
8
0
10
22.573543750000002
20
9.4696
30
0
0
SEQEND
0
POLYLINE
66
1
8
16_copper
10
0.0
20
0.0
30
0.0
70
1
0
VERTEX
8
0
10
38.460103125
20
3.3476875
30
0
42
0.18597604843350257
0
VERTEX
8
0
10
38.593684375
20
3.406315625
30
0
0
VERTEX
8
0
10
39.243684375
20
4.056315625
30
0
42
0.198912367379658
0
VERTEX
8
0
10
39.303200000000004
20
4.2
30
0
0
VERTEX
8
0
10
39.303200000000004
20
9
30
0
42
0.198912367379658
0
VERTEX
8
0
10
39.243684375
20
9.143684375000001
30
0
0
VERTEX
8
0
10
36.673684375
20
11.713684375
30
0
42
0.198912367379658
0
VERTEX
8
0
10
36.53
20
11.773200000000001
30
0
0
VERTEX
8
0
10
33.061503125
20
11.773200000000001
30
0
42
0.32577150397300747
0
VERTEX
8
0
10
32.4506625
20
12.204931250000001
30
0
0
VERTEX
8
0
10
27.690662500000002
20
12.134931250000001
30
0
42
0.15633588421448968
0
VERTEX
8
0
10
27.323318750000002
20
12.011209375
30
0
0
VERTEX
8
0
10
25.593753125000003
20
10.73679375
30
0
0
VERTEX
8
0
10
22.601503125
20
10.762440625
30
0
0
VERTEX
8
0
10
22.573543750000002
20
10.7904
30
0
0
VERTEX
8
0
10
22.026456250000003
20
10.7904
30
0
0
VERTEX
8
0
10
21.6396
20
10.40354375
30
0
0
VERTEX
8
0
10
21.6396
20
9.85645625
30
0
0
VERTEX
8
0
10
22.026456250000003
20
9.4696
30
0
0
VERTEX
8
0
10
22.573543750000002
20
9.4696
30
0
0
VERTEX
8
0
10
22.596378125
20
9.492434375
30
0
0
VERTEX
8
0
10
25.794556250000003
20
9.465021875
30
0
42
0.16230315970248657
0
VERTEX
8
0
10
26.17668125
20
9.588790625
30
0
0
VERTEX
8
0
10
27.912834375000003
20
10.8680625
30
0
0
VERTEX
8
0
10
32.4693375
20
10.935068750000001
30
0
42
0.3175632399833119
0
VERTEX
8
0
10
33.060821875
20
11.366800000000001
30
0
0
VERTEX
8
0
10
36.445831250000005
20
11.366800000000001
30
0
0
VERTEX
8
0
10
38.8968
20
8.91583125
30
0
0
VERTEX
8
0
10
38.8968
20
4.28416875
30
0
0
VERTEX
8
0
10
38.36583125
20
3.7532
30
0
0
VERTEX
8
0
10
14.13416875
20
3.7532
30
0
0
VERTEX
8
0
10
3.6032
20
14.284168750000001
30
0
0
VERTEX
8
0
10
3.6032
20
31.51583125
30
0
0
VERTEX
8
0
10
6.58416875
20
34.4968
30
0
0
VERTEX
8
0
10
15.3
20
34.4968
30
0
42
0.198912367379658
0
VERTEX
8
0
10
15.443684375
20
34.556315625
30
0
0
VERTEX
8
0
10
18.243684375
20
37.356315625
30
0
42
0.198912367379658
0
VERTEX
8
0
10
18.3032
20
37.5
30
0
0
VERTEX
8
0
10
18.3032
20
42.31583125
30
0
0
VERTEX
8
0
10
21.43416875
20
45.4468
30
0
0
VERTEX
8
0
10
48.86583125
20
45.4468
30
0
0
VERTEX
8
0
10
50.5968
20
43.71583125
30
0
0
VERTEX
8
0
10
50.5968
20
37.684168750000005
30
0
0
VERTEX
8
0
10
49.75583125
20
36.8432
30
0
0
VERTEX
8
0
10
48.635000000000005
20
36.8432
30
0
0
VERTEX
8
0
10
48.635000000000005
20
37.74
30
0
0
VERTEX
8
0
10
48.035000000000004
20
37.74
30
0
0
VERTEX
8
0
10
48.035000000000004
20
35.54
30
0
0
VERTEX
8
0
10
48.635000000000005
20
35.54
30
0
0
VERTEX
8
0
10
48.635000000000005
20
36.436800000000005
30
0
0
VERTEX
8
0
10
49.84
20
36.436800000000005
30
0
42
0.198912367379658
0
VERTEX
8
0
10
49.983684375
20
36.496315625
30
0
0
VERTEX
8
0
10
50.943684375000004
20
37.456315625
30
0
42
0.198912367379658
0
VERTEX
8
0
10
51.0032
20
37.6
30
0
0
VERTEX
8
0
10
51.0032
20
43.800000000000004
30
0
42
0.198912367379658
0
VERTEX
8
0
10
50.943684375000004
20
43.943684375000004
30
0
0
VERTEX
8
0
10
49.093684375
20
45.793684375000005
30
0
42
0.198912367379658
0
VERTEX
8
0
10
48.95
20
45.8532
30
0
0
VERTEX
8
0
10
21.35
20
45.8532
30
0
42
0.198912367379658
0
VERTEX
8
0
10
21.206315625000002
20
45.793684375000005
30
0
0
VERTEX
8
0
10
17.956315625000002
20
42.543684375000005
30
0
42
0.198912367379658
0
VERTEX
8
0
10
17.896800000000002
20
42.4
30
0
0
VERTEX
8
0
10
17.896800000000002
20
37.58416875
30
0
0
VERTEX
8
0
10
15.21583125
20
34.9032
30
0
0
VERTEX
8
0
10
6.5
20
34.9032
30
0
42
0.198912367379658
0
VERTEX
8
0
10
6.356315625000001
20
34.843684375
30
0
0
VERTEX
8
0
10
3.256315625
20
31.743684375
30
0
42
0.198912367379658
0
VERTEX
8
0
10
3.1968
20
31.6
30
0
0
VERTEX
8
0
10
3.1968
20
14.200000000000001
30
0
42
0.198912367379658
0
VERTEX
8
0
10
3.256315625
20
14.056315625
30
0
0
VERTEX
8
0
10
13.906315625000001
20
3.406315625
30
0
42
0.198912367379658
0
VERTEX
8
0
10
14.05
20
3.3468
30
0
0
VERTEX
8
0
10
38.45
20
3.3468
30
0
0
SEQEND
0
POLYLINE
66
1
8
1_copper
10
0.0
20
0.0
30
0.0
70
1
0
VERTEX
8
0
10
9.671153125
20
19.117396875
30
0
42
0.9243912652821668
0
VERTEX
8
0
10
9.577146875
20
21.51
30
0
0
VERTEX
8
0
10
7.082853125000001
20
21.51
30
0
42
0.9614824550963637
0
VERTEX
8
0
10
7.082853125000001
20
19.11
30
0
0
VERTEX
8
0
10
9.577146875
20
19.11
30
0
0
SEQEND
0
POLYLINE
66
1
8
1_copper
10
0.0
20
0.0
30
0.0
70
1
0
VERTEX
8
0
10
22.9604
20
20.01645625
30
0
0
VERTEX
8
0
10
22.9604
20
20.56354375
30
0
0
VERTEX
8
0
10
22.573543750000002
20
20.950400000000002
30
0
0
VERTEX
8
0
10
22.026456250000003
20
20.950400000000002
30
0
0
VERTEX
8
0
10
21.6396
20
20.56354375
30
0
0
VERTEX
8
0
10
21.6396
20
20.01645625
30
0
0
VERTEX
8
0
10
22.026456250000003
20
19.6296
30
0
0
VERTEX
8
0
10
22.573543750000002
20
19.6296
30
0
0
SEQEND
0
POLYLINE
66
1
8
16_copper
10
0.0
20
0.0
30
0.0
70
1
0
VERTEX
8
0
10
9.671153125
20
19.117396875
30
0
42
0.22684688253308738
0
VERTEX
8
0
10
10.546321875
20
19.671825000000002
30
0
0
VERTEX
8
0
10
22.000628125000002
20
19.655428125
30
0
0
VERTEX
8
0
10
22.026456250000003
20
19.6296
30
0
0
VERTEX
8
0
10
22.573543750000002
20
19.6296
30
0
0
VERTEX
8
0
10
22.9604
20
20.01645625
30
0
0
VERTEX
8
0
10
22.9604
20
20.56354375
30
0
0
VERTEX
8
0
10
22.573543750000002
20
20.950400000000002
30
0
0
VERTEX
8
0
10
22.026456250000003
20
20.950400000000002
30
0
0
VERTEX
8
0
10
22.001484375
20
20.925428125
30
0
0
VERTEX
8
0
10
10.5502125
20
20.941821875000002
30
0
42
0.2492350968103757
0
VERTEX
8
0
10
9.577146875
20
21.51
30
0
0
VERTEX
8
0
10
7.082853125000001
20
21.51
30
0
42
0.9614824550963637
0
VERTEX
8
0
10
7.082853125000001
20
19.11
30
0
0
VERTEX
8
0
10
9.577146875
20
19.11
30
0
0
SEQEND
0
POLYLINE
66
1
8
1_copper
10
0.0
20
0.0
30
0.0
70
1
0
VERTEX
8
0
10
66.021153125
20
25.497396875
30
0
42
0.9243912652821668
0
VERTEX
8
0
10
65.927146875
20
27.89
30
0
0
VERTEX
8
0
10
63.432853125
20
27.89
30
0
42
0.9614824550963637
0
VERTEX
8
0
10
63.432853125
20
25.490000000000002
30
0
0
VERTEX
8
0
10
65.927146875
20
25.490000000000002
30
0
0
SEQEND
0
POLYLINE
66
1
8
16_copper
10
0.0
20
0.0
30
0.0
70
1
0
VERTEX
8
0
10
70.010103125
20
11.7976875
30
0
42
0.18597604843350257
0
VERTEX
8
0
10
70.143684375
20
11.856315625
30
0
0
VERTEX
8
0
10
71.143684375
20
12.856315625
30
0
42
0.198912367379658
0
VERTEX
8
0
10
71.20320000000001
20
13
30
0
0
VERTEX
8
0
10
71.20320000000001
20
24.3
30
0
42
0.198912367379658
0
VERTEX
8
0
10
71.143684375
20
24.443684375
30
0
0
VERTEX
8
0
10
68.743684375
20
26.843684375000002
30
0
42
0.26421680283137117
0
VERTEX
8
0
10
68.538578125
20
26.8932
30
0
0
VERTEX
8
0
10
67.062775
20
26.8932
30
0
42
0.3541276265136388
0
VERTEX
8
0
10
65.927146875
20
27.89
30
0
0
VERTEX
8
0
10
63.432853125
20
27.89
30
0
42
0.9614824550963637
0
VERTEX
8
0
10
63.432853125
20
25.490000000000002
30
0
0
VERTEX
8
0
10
65.927146875
20
25.490000000000002
30
0
42
0.3541276265136388
0
VERTEX
8
0
10
67.062775
20
26.486800000000002
30
0
0
VERTEX
8
0
10
68.52583125000001
20
26.486800000000002
30
0
0
VERTEX
8
0
10
70.7968
20
24.21583125
30
0
0
VERTEX
8
0
10
70.7968
20
13.08416875
30
0
0
VERTEX
8
0
10
69.91583125
20
12.2032
30
0
0
VERTEX
8
0
10
61.88416875
20
12.2032
30
0
0
VERTEX
8
0
10
39.5032
20
34.58416875
30
0
0
VERTEX
8
0
10
39.5032
20
39.71583125
30
0
0
VERTEX
8
0
10
41.42416875
20
41.6368
30
0
0
VERTEX
8
0
10
44.225
20
41.6368
30
0
0
VERTEX
8
0
10
44.225
20
40.74
30
0
0
VERTEX
8
0
10
44.825
20
40.74
30
0
0
VERTEX
8
0
10
44.825
20
41.6368
30
0
0
VERTEX
8
0
10
45.495000000000005
20
41.6368
30
0
0
VERTEX
8
0
10
45.495000000000005
20
40.74
30
0
0
VERTEX
8
0
10
46.095
20
40.74
30
0
0
VERTEX
8
0
10
46.095
20
42.940000000000005
30
0
0
VERTEX
8
0
10
45.495000000000005
20
42.940000000000005
30
0
0
VERTEX
8
0
10
45.495000000000005
20
42.0432
30
0
0
VERTEX
8
0
10
44.825
20
42.0432
30
0
0
VERTEX
8
0
10
44.825
20
42.940000000000005
30
0
0
VERTEX
8
0
10
44.225
20
42.940000000000005
30
0
0
VERTEX
8
0
10
44.225
20
42.0432
30
0
0
VERTEX
8
0
10
41.34
20
42.0432
30
0
42
0.198912367379658
0
VERTEX
8
0
10
41.196315625000004
20
41.983684375
30
0
0
VERTEX
8
0
10
39.156315625000005
20
39.943684375000004
30
0
42
0.198912367379658
0
VERTEX
8
0
10
39.0968
20
39.800000000000004
30
0
0
VERTEX
8
0
10
39.0968
20
34.5
30
0
42
0.198912367379658
0
VERTEX
8
0
10
39.156315625000005
20
34.356315625
30
0
0
VERTEX
8
0
10
61.656315625000005
20
11.856315625
30
0
42
0.198912367379658
0
VERTEX
8
0
10
61.800000000000004
20
11.796800000000001
30
0
0
VERTEX
8
0
10
70
20
11.796800000000001
30
0
0
SEQEND
0
POLYLINE
66
1
8
1_copper
10
0.0
20
0.0
30
0.0
70
1
0
VERTEX
8
0
10
45.960100000000004
20
22.660590625
30
0
0
VERTEX
8
0
10
45.960100000000004
20
23.323409375
30
0
0
VERTEX
8
0
10
45.491409375
20
23.7921
30
0
0
VERTEX
8
0
10
44.828590625000004
20
23.7921
30
0
0
VERTEX
8
0
10
44.3599
20
23.323409375
30
0
0
VERTEX
8
0
10
44.3599
20
22.660590625
30
0
0
VERTEX
8
0
10
44.828590625000004
20
22.1919
30
0
0
VERTEX
8
0
10
45.491409375
20
22.1919
30
0
0
SEQEND
0
POLYLINE
66
1
8
1_copper
10
0.0
20
0.0
30
0.0
70
1
0
VERTEX
8
0
10
66.021153125
20
15.497396875000002
30
0
42
0.9243912652821668
0
VERTEX
8
0
10
65.927146875
20
17.89
30
0
0
VERTEX
8
0
10
63.432853125
20
17.89
30
0
42
0.9614824550963637
0
VERTEX
8
0
10
63.432853125
20
15.49
30
0
0
VERTEX
8
0
10
65.927146875
20
15.49
30
0
0
SEQEND
0
POLYLINE
66
1
8
16_copper
10
0.0
20
0.0
30
0.0
70
1
0
VERTEX
8
0
10
70.00526875
20
1.2704593750000002
30
0
0
VERTEX
8
0
10
70.01140000000001
20
1.270315625
30
0
0
VERTEX
8
0
10
70.40626875000001
20
1.2924906250000001
30
0
42
0.04209852001410991
0
VERTEX
8
0
10
70.440090625
20
1.297265625
30
0
0
VERTEX
8
0
10
71.210040625
20
1.473003125
30
0
42
0.05615962825778801
0
VERTEX
8
0
10
71.25299062500001
20
1.4880312500000001
30
0
0
VERTEX
8
0
10
71.964534375
20
1.83069375
30
0
42
0.05615911013418574
0
VERTEX
8
0
10
72.0030625
20
1.854903125
30
0
0
VERTEX
8
0
10
72.62051562500001
20
2.34730625
30
0
42
0.056158506800639885
0
VERTEX
8
0
10
72.652690625
20
2.37948125
30
0
0
VERTEX
8
0
10
73.14509375
20
2.996934375
30
0
42
0.05615911013418574
0
VERTEX
8
0
10
73.169303125
20
3.0354625
30
0
0
VERTEX
8
0
10
73.511965625
20
3.74700625
30
0
42
0.05615962825778801
0
VERTEX
8
0
10
73.52699375
20
3.7899562500000004
30
0
0
VERTEX
8
0
10
73.70273125
20
4.559903125
30
0
42
0.04209852001410991
0
VERTEX
8
0
10
73.70750625000001
20
4.593725
30
0
0
VERTEX
8
0
10
73.72968125
20
4.988603125
30
0
42
0.014026112158890618
0
VERTEX
8
0
10
73.73
20
4.999996875
30
0
0
VERTEX
8
0
10
73.73
20
45.000003125
30
0
42
0.014026112158890618
0
VERTEX
8
0
10
73.72968125
20
45.011396875
30
0
0
VERTEX
8
0
10
73.70750625000001
20
45.40626875
30
0
42
0.04209852001410991
0
VERTEX
8
0
10
73.70273125
20
45.440090625
30
0
0
VERTEX
8
0
10
73.52699375
20
46.210040625000005
30
0
42
0.05615962825778801
0
VERTEX
8
0
10
73.511965625
20
46.252990625
30
0
0
VERTEX
8
0
10
73.169303125
20
46.964534375
30
0
42
0.05615911013418574
0
VERTEX
8
0
10
73.14509375
20
47.003062500000006
30
0
0
VERTEX
8
0
10
72.652690625
20
47.620515625
30
0
42
0.056158506800639885
0
VERTEX
8
0
10
72.62051562500001
20
47.652690625000005
30
0
0
VERTEX
8
0
10
72.003065625
20
48.14509375
30
0
42
0.05615911013418574
0
VERTEX
8
0
10
71.9645375
20
48.169303125
30
0
0
VERTEX
8
0
10
71.25299375
20
48.511965625
30
0
42
0.05615962825778801
0
VERTEX
8
0
10
71.21004375
20
48.52699375
30
0
0
VERTEX
8
0
10
70.44009375
20
48.70273125
30
0
42
0.04209852001410991
0
VERTEX
8
0
10
70.406271875
20
48.70750625
30
0
0
VERTEX
8
0
10
70.01139375
20
48.729681250000006
30
0
42
0.014026112158890618
0
VERTEX
8
0
10
70
20
48.730000000000004
30
0
0
VERTEX
8
0
10
5
20
48.730000000000004
30
0
42
0.014026112158890618
0
VERTEX
8
0
10
4.98860625
20
48.729681250000006
30
0
0
VERTEX
8
0
10
4.593728125
20
48.70750625
30
0
42
0.04209852001410991
0
VERTEX
8
0
10
4.55990625
20
48.70273125
30
0
0
VERTEX
8
0
10
3.7899531250000003
20
48.52699375
30
0
42
0.05615962825778801
0
VERTEX
8
0
10
3.747003125
20
48.511965625
30
0
0
VERTEX
8
0
10
3.0354625
20
48.169306250000005
30
0
42
0.05616078352672386
0
VERTEX
8
0
10
2.996934375
20
48.14509375
30
0
0
VERTEX
8
0
10
2.37948125
20
47.652693750000005
30
0
42
0.056158506800639885
0
VERTEX
8
0
10
2.34730625
20
47.62051875
30
0
0
VERTEX
8
0
10
1.854903125
20
47.003065625000005
30
0
42
0.05615911013418574
0
VERTEX
8
0
10
1.83069375
20
46.9645375
30
0
0
VERTEX
8
0
10
1.4880312500000001
20
46.25299375
30
0
42
0.05615962825778801
0
VERTEX
8
0
10
1.473003125
20
46.210043750000004
30
0
0
VERTEX
8
0
10
1.297265625
20
45.44009375
30
0
42
0.04209852001410991
0
VERTEX
8
0
10
1.2924906250000001
20
45.406271875
30
0
0
VERTEX
8
0
10
1.270315625
20
45.011409375
30
0
42
0.014026112158890618
0
VERTEX
8
0
10
1.2699968750000001
20
45.000015625
30
0
0
VERTEX
8
0
10
1.2699968750000001
20
4.999990625000001
30
0
42
0.014026112158890618
0
VERTEX
8
0
10
1.270315625
20
4.988596875
30
0
0
VERTEX
8
0
10
1.2924906250000001
20
4.593728125
30
0
42
0.04209852001410991
0
VERTEX
8
0
10
1.297265625
20
4.55990625
30
0
0
VERTEX
8
0
10
1.473003125
20
3.7899562500000004
30
0
42
0.05615962825778801
0
VERTEX
8
0
10
1.4880312500000001
20
3.74700625
30
0
0
VERTEX
8
0
10
1.83069375
20
3.0354625
30
0
42
0.05615911013418574
0
VERTEX
8
0
10
1.854903125
20
2.996934375
30
0
0
VERTEX
8
0
10
2.34730625
20
2.37948125
30
0
42
0.056158506800639885
0
VERTEX
8
0
10
2.37948125
20
2.34730625
30
0
0
VERTEX
8
0
10
2.996934375
20
1.854903125
30
0
42
0.05615911013418574
0
VERTEX
8
0
10
3.0354625
20
1.83069375
30
0
0
VERTEX
8
0
10
3.74700625
20
1.4880312500000001
30
0
42
0.05615962825778801
0
VERTEX
8
0
10
3.7899562500000004
20
1.473003125
30
0
0
VERTEX
8
0
10
4.55990625
20
1.297265625
30
0
42
0.04209852001410991
0
VERTEX
8
0
10
4.593728125
20
1.2924906250000001
30
0
0
VERTEX
8
0
10
4.988603125
20
1.270315625
30
0
42
0.014026112158890618
0
VERTEX
8
0
10
4.999996875
20
1.2699968750000001
30
0
0
VERTEX
8
0
10
70.00000625
20
1.2699968750000001
30
0
0
SEQEND
0
POLYLINE
66
1
8
16_copper
10
0.0
20
0.0
30
0.0
70
1
0
VERTEX
8
0
10
5.40639375
20
45.40639375
30
0
0
VERTEX
8
0
10
5.40639375
20
48.15033125
30
0
0
VERTEX
8
0
10
5.466421875
20
48.14441875
30
0
0
VERTEX
8
0
10
5.7724
20
48.083559375
30
0
0
VERTEX
8
0
10
6.070934375
20
47.992996875
30
0
0
VERTEX
8
0
10
6.359109375
20
47.87363125
30
0
0
VERTEX
8
0
10
6.634240625
20
47.726571875000005
30
0
0
VERTEX
8
0
10
6.893621875
20
47.553259375
30
0
0
VERTEX
8
0
10
7.134765625
20
47.35535625
30
0
0
VERTEX
8
0
10
7.355356250000001
20
47.134765625
30
0
0
VERTEX
8
0
10
7.5532593750000006
20
46.893621875
30
0
0
VERTEX
8
0
10
7.726571875
20
46.634240625000004
30
0
0
VERTEX
8
0
10
7.873631250000001
20
46.359109375
30
0
0
VERTEX
8
0
10
7.992996875
20
46.070934375
30
0
0
VERTEX
8
0
10
8.083559375
20
45.772400000000005
30
0
0
VERTEX
8
0
10
8.14441875
20
45.466421875
30
0
0
VERTEX
8
0
10
8.15033125
20
45.40639375
30
0
0
SEQEND
0
POLYLINE
66
1
8
16_copper
10
0.0
20
0.0
30
0.0
70
1
0
VERTEX
8
0
10
1.849665625
20
45.40639375
30
0
0
VERTEX
8
0
10
1.855578125
20
45.466425
30
0
0
VERTEX
8
0
10
1.9164375
20
45.772400000000005
30
0
0
VERTEX
8
0
10
2.007
20
46.070934375
30
0
0
VERTEX
8
0
10
2.126365625
20
46.359109375
30
0
0
VERTEX
8
0
10
2.273425
20
46.634240625000004
30
0
0
VERTEX
8
0
10
2.4467375000000002
20
46.893621875
30
0
0
VERTEX
8
0
10
2.644640625
20
47.134765625
30
0
0
VERTEX
8
0
10
2.8652312500000003
20
47.35535625
30
0
0
VERTEX
8
0
10
3.1063750000000003
20
47.553259375
30
0
0
VERTEX
8
0
10
3.36575625
20
47.726571875000005
30
0
0
VERTEX
8
0
10
3.6408875000000003
20
47.87363125
30
0
0
VERTEX
8
0
10
3.9290625
20
47.992996875
30
0
0
VERTEX
8
0
10
4.227596875000001
20
48.083559375
30
0
0
VERTEX
8
0
10
4.533575
20
48.14441875
30
0
0
VERTEX
8
0
10
4.5936
20
48.15033125
30
0
0
VERTEX
8
0
10
4.5936
20
45.40639375
30
0
0
SEQEND
0
POLYLINE
66
1
8
16_copper
10
0.0
20
0.0
30
0.0
70
1
0
VERTEX
8
0
10
66.849665625
20
45.40639375
30
0
0
VERTEX
8
0
10
66.85557812500001
20
45.466425
30
0
0
VERTEX
8
0
10
66.9164375
20
45.772400000000005
30
0
0
VERTEX
8
0
10
67.007
20
46.070934375
30
0
0
VERTEX
8
0
10
67.126365625
20
46.359109375
30
0
0
VERTEX
8
0
10
67.273425
20
46.634240625000004
30
0
0
VERTEX
8
0
10
67.4467375
20
46.893621875
30
0
0
VERTEX
8
0
10
67.64464062500001
20
47.134765625
30
0
0
VERTEX
8
0
10
67.86523125000001
20
47.35535625
30
0
0
VERTEX
8
0
10
68.106375
20
47.553259375
30
0
0
VERTEX
8
0
10
68.36575625
20
47.726571875000005
30
0
0
VERTEX
8
0
10
68.6408875
20
47.87363125
30
0
0
VERTEX
8
0
10
68.9290625
20
47.992996875
30
0
0
VERTEX
8
0
10
69.227596875
20
48.083559375
30
0
0
VERTEX
8
0
10
69.533575
20
48.14441875
30
0
0
VERTEX
8
0
10
69.59360000000001
20
48.15033125
30
0
0
VERTEX
8
0
10
69.59360000000001
20
45.40639375
30
0
0
SEQEND
0
POLYLINE
66
1
8
16_copper
10
0.0
20
0.0
30
0.0
70
1
0
VERTEX
8
0
10
70.40639375
20
45.40639375
30
0
0
VERTEX
8
0
10
70.40639375
20
48.15033125
30
0
0
VERTEX
8
0
10
70.46642187500001
20
48.14441875
30
0
0
VERTEX
8
0
10
70.7724
20
48.083559375
30
0
0
VERTEX
8
0
10
71.07093437500001
20
47.992996875
30
0
0
VERTEX
8
0
10
71.359109375
20
47.87363125
30
0
0
VERTEX
8
0
10
71.634240625
20
47.726571875000005
30
0
0
VERTEX
8
0
10
71.89362187500001
20
47.553259375
30
0
0
VERTEX
8
0
10
72.134765625
20
47.35535625
30
0
0
VERTEX
8
0
10
72.35535625
20
47.134765625
30
0
0
VERTEX
8
0
10
72.55325937500001
20
46.893621875
30
0
0
VERTEX
8
0
10
72.726571875
20
46.634240625000004
30
0
0
VERTEX
8
0
10
72.87363125
20
46.359109375
30
0
0
VERTEX
8
0
10
72.992996875
20
46.070934375
30
0
0
VERTEX
8
0
10
73.08355937500001
20
45.772400000000005
30
0
0
VERTEX
8
0
10
73.14441875
20
45.466421875
30
0
0
VERTEX
8
0
10
73.15033125000001
20
45.40639375
30
0
0
SEQEND
0
POLYLINE
66
1
8
16_copper
10
0.0
20
0.0
30
0.0
70
1
0
VERTEX
8
0
10
13.88831875
20
2.7372
30
0
0
VERTEX
8
0
10
13.5895875
20
2.8609375000000004
30
0
0
VERTEX
8
0
10
2.7109375
20
13.7395875
30
0
0
VERTEX
8
0
10
2.5872
20
14.03831875
30
0
0
VERTEX
8
0
10
2.5872
20
31.761678125000003
30
0
0
VERTEX
8
0
10
2.7109375
20
32.060409375
30
0
0
VERTEX
8
0
10
2.968165625
20
32.317637500000004
30
0
0
VERTEX
8
0
10
5.782359375
20
35.131828125
30
0
0
VERTEX
8
0
10
5.782375
20
35.131846875
30
0
0
VERTEX
8
0
10
6.0395875000000006
20
35.389059375
30
0
0
VERTEX
8
0
10
6.33831875
20
35.512796875
30
0
0
VERTEX
8
0
10
14.879156250000001
20
35.512796875
30
0
42
0.198912367379658
0
VERTEX
8
0
10
15.022840625
20
35.5723125
30
0
0
VERTEX
8
0
10
17.227684375
20
37.777156250000004
30
0
42
0.198912367379658
0
VERTEX
8
0
10
17.287200000000002
20
37.920840625000004
30
0
0
VERTEX
8
0
10
17.287200000000002
20
42.561678125
30
0
0
VERTEX
8
0
10
17.4109375
20
42.860409375
30
0
0
VERTEX
8
0
10
20.8895875
20
46.339059375000005
30
0
0
VERTEX
8
0
10
21.18831875
20
46.462796875
30
0
0
VERTEX
8
0
10
49.111678125000005
20
46.462796875
30
0
0
VERTEX
8
0
10
49.410409375
20
46.339059375000005
30
0
0
VERTEX
8
0
10
51.489059375000004
20
44.260409375
30
0
0
VERTEX
8
0
10
51.612796875
20
43.961678125
30
0
0
VERTEX
8
0
10
51.612796875
20
37.43831875
30
0
0
VERTEX
8
0
10
51.489059375000004
20
37.139587500000005
30
0
0
VERTEX
8
0
10
50.300409375
20
35.9509375
30
0
0
VERTEX
8
0
10
50.001678125000005
20
35.827200000000005
30
0
0
VERTEX
8
0
10
49.447796875
20
35.827200000000005
30
0
42
0.41421356237309503
0
VERTEX
8
0
10
49.244596875
20
35.624
30
0
0
VERTEX
8
0
10
49.244596875
20
35.418740625000005
30
0
0
VERTEX
8
0
10
49.15179375
20
35.194690625
30
0
0
VERTEX
8
0
10
48.980306250000005
20
35.023203125
30
0
0
VERTEX
8
0
10
48.75625625
20
34.9304
30
0
0
VERTEX
8
0
10
47.913740625
20
34.9304
30
0
0
VERTEX
8
0
10
47.777759375
20
34.986725
30
0
42
0.19891631445630556
0
VERTEX
8
0
10
47.622234375000005
20
34.986725
30
0
0
VERTEX
8
0
10
47.486256250000004
20
34.9304
30
0
0
VERTEX
8
0
10
46.643740625
20
34.9304
30
0
0
VERTEX
8
0
10
46.507759375
20
34.986725
30
0
42
0.19891631445630556
0
VERTEX
8
0
10
46.352234375
20
34.986725
30
0
0
VERTEX
8
0
10
46.21625625
20
34.9304
30
0
0
VERTEX
8
0
10
45.609634375
20
34.9304
30
0
42
0.6681786379192989
0
VERTEX
8
0
10
45.46595
20
34.583515625000004
30
0
0
VERTEX
8
0
10
47.238025
20
32.811440625
30
0
42
0.41421356237309503
0
VERTEX
8
0
10
47.52539375
20
32.811440625
30
0
0
VERTEX
8
0
10
47.673950000000005
20
32.959996875
30
0
0
VERTEX
8
0
10
48.737443750000004
20
32.959996875
30
0
42
0.12679569439317956
0
VERTEX
8
0
10
48.835615625
20
32.934596875000004
30
0
0
VERTEX
8
0
10
62.08126875
20
32.934596875000004
30
0
42
0.198912367379658
0
VERTEX
8
0
10
62.224953125000006
20
32.9941125
30
0
0
VERTEX
8
0
10
62.454943750000005
20
33.224103125
30
0
0
VERTEX
8
0
10
63.120046875
20
33.499596875
30
0
0
VERTEX
8
0
10
66.23995000000001
20
33.499596875
30
0
0
VERTEX
8
0
10
66.90505312500001
20
33.224103125
30
0
0
VERTEX
8
0
10
67.414103125
20
32.715053125000004
30
0
0
VERTEX
8
0
10
67.689596875
20
32.04995
30
0
0
VERTEX
8
0
10
67.689596875
20
31.330046875
30
0
0
VERTEX
8
0
10
67.414103125
20
30.664943750000003
30
0
0
VERTEX
8
0
10
66.90505312500001
20
30.15589375
30
0
0
VERTEX
8
0
10
66.23995000000001
20
29.8804
30
0
0
VERTEX
8
0
10
63.120046875
20
29.8804
30
0
0
VERTEX
8
0
10
62.454943750000005
20
30.15589375
30
0
0
VERTEX
8
0
10
62.224953125000006
20
30.385884375
30
0
42
0.198912367379658
0
VERTEX
8
0
10
62.08126875
20
30.445400000000003
30
0
0
VERTEX
8
0
10
48.835615625
20
30.445400000000003
30
0
0
VERTEX
8
0
10
48.8255125
20
30.444512500000002
30
0
0
VERTEX
8
0
10
48.81535
20
30.4443875
30
0
42
0.09123801070329839
0
VERTEX
8
0
10
48.73801875
20
30.42
30
0
0
VERTEX
8
0
10
48.220034375000004
20
30.42
30
0
42
0.6681786379192989
0
VERTEX
8
0
10
48.076350000000005
20
30.073115625
30
0
0
VERTEX
8
0
10
55.58715625
20
22.5623125
30
0
42
0.198912367379658
0
VERTEX
8
0
10
55.730840625000006
20
22.502796875
30
0
0
VERTEX
8
0
10
61.722203125
20
22.502796875
30
0
42
0.3033500961167425
0
VERTEX
8
0
10
61.909937500000005
20
22.6282375
30
0
0
VERTEX
8
0
10
61.9459
20
22.715059375000003
30
0
0
VERTEX
8
0
10
62.454943750000005
20
23.224103125000003
30
0
0
VERTEX
8
0
10
63.120046875
20
23.499596875
30
0
0
VERTEX
8
0
10
66.23995000000001
20
23.499596875
30
0
0
VERTEX
8
0
10
66.90505312500001
20
23.224103125000003
30
0
0
VERTEX
8
0
10
67.414103125
20
22.715053125
30
0
0
VERTEX
8
0
10
67.689596875
20
22.049950000000003
30
0
0
VERTEX
8
0
10
67.689596875
20
21.330046875
30
0
0
VERTEX
8
0
10
67.414103125
20
20.664943750000003
30
0
0
VERTEX
8
0
10
66.90505312500001
20
20.15589375
30
0
0
VERTEX
8
0
10
66.23995000000001
20
19.8804
30
0
0
VERTEX
8
0
10
63.120046875
20
19.8804
30
0
0
VERTEX
8
0
10
62.454943750000005
20
20.15589375
30
0
0
VERTEX
8
0
10
61.9459
20
20.6649375
30
0
42
0.4261232308385347
0
VERTEX
8
0
10
61.722203125
20
20.877200000000002
30
0
0
VERTEX
8
0
10
55.14831875
20
20.877200000000002
30
0
0
VERTEX
8
0
10
54.849587500000005
20
21.000937500000003
30
0
0
VERTEX
8
0
10
41.4109375
20
34.4395875
30
0
0
VERTEX
8
0
10
41.2872
20
34.738318750000005
30
0
0
VERTEX
8
0
10
41.2872
20
38.161678125
30
0
0
VERTEX
8
0
10
41.4109375
20
38.460409375000005
30
0
0
VERTEX
8
0
10
41.668165625
20
38.7176375
30
0
0
VERTEX
8
0
10
42.132359375
20
39.181828125
30
0
0
VERTEX
8
0
10
42.132375
20
39.181846875000005
30
0
0
VERTEX
8
0
10
42.389587500000005
20
39.439059375
30
0
0
VERTEX
8
0
10
42.68831875
20
39.562796875000004
30
0
0
VERTEX
8
0
10
45.411678125
20
39.562796875000004
30
0
0
VERTEX
8
0
10
45.710409375000005
20
39.439059375
30
0
0
VERTEX
8
0
10
46.48405625
20
38.6654125
30
0
0
VERTEX
8
0
10
46.562909375000004
20
38.4750375
30
0
42
0.3033500961167425
0
VERTEX
8
0
10
46.75064375
20
38.349596875
30
0
0
VERTEX
8
0
10
47.486256250000004
20
38.349596875
30
0
0
VERTEX
8
0
10
47.622234375000005
20
38.293271875
30
0
42
0.19891631445630556
0
VERTEX
8
0
10
47.777759375
20
38.293271875
30
0
0
VERTEX
8
0
10
47.913740625
20
38.349596875
30
0
0
VERTEX
8
0
10
48.75625625
20
38.349596875
30
0
0
VERTEX
8
0
10
48.980306250000005
20
38.25679375
30
0
0
VERTEX
8
0
10
49.15179375
20
38.08530625
30
0
0
VERTEX
8
0
10
49.244596875
20
37.861256250000004
30
0
0
VERTEX
8
0
10
49.244596875
20
37.684634375
30
0
42
0.6681786379192989
0
VERTEX
8
0
10
49.59148125
20
37.54095
30
0
0
VERTEX
8
0
10
49.927684375000005
20
37.87715625
30
0
42
0.198912367379658
0
VERTEX
8
0
10
49.9872
20
38.020840625000005
30
0
0
VERTEX
8
0
10
49.9872
20
43.37915625
30
0
42
0.198912367379658
0
VERTEX
8
0
10
49.927684375000005
20
43.522840625
30
0
0
VERTEX
8
0
10
48.672840625
20
44.777684375
30
0
42
0.198912367379658
0
VERTEX
8
0
10
48.52915625
20
44.8372
30
0
0
VERTEX
8
0
10
47.867834375
20
44.8372
30
0
42
0.6120826820247298
0
VERTEX
8
0
10
47.703193750000004
20
44.51490625
30
0
0
VERTEX
8
0
10
47.709246875000005
20
44.507803125
30
0
42
0.07180285973614822
0
VERTEX
8
0
10
47.7540625
20
44.460406250000005
30
0
0
VERTEX
8
0
10
47.877796875
20
44.161678125
30
0
0
VERTEX
8
0
10
47.877796875
20
43.397196875
30
0
42
0.48790596440906653
0
VERTEX
8
0
10
48.13178125
20
43.193996875
30
0
0
VERTEX
8
0
10
48.13178125
20
42.940000000000005
30
0
0
VERTEX
8
0
10
48.035000000000004
20
42.940000000000005
30
0
0
VERTEX
8
0
10
48.035000000000004
20
40.74
30
0
0
VERTEX
8
0
10
48.13178125
20
40.74
30
0
0
VERTEX
8
0
10
48.13178125
20
40.486000000000004
30
0
42
0.31868803316198124
0
VERTEX
8
0
10
47.89761875
20
40.410515625
30
0
0
VERTEX
8
0
10
47.71030625
20
40.223203125000005
30
0
0
VERTEX
8
0
10
47.486256250000004
20
40.1304
30
0
0
VERTEX
8
0
10
46.643740625
20
40.1304
30
0
0
VERTEX
8
0
10
46.507759375
20
40.186725
30
0
42
0.19891631445630556
0
VERTEX
8
0
10
46.352234375
20
40.186725
30
0
0
VERTEX
8
0
10
46.21625625
20
40.1304
30
0
0
VERTEX
8
0
10
45.373740625
20
40.1304
30
0
0
VERTEX
8
0
10
45.2377625
20
40.186725
30
0
42
0.19891631445630556
0
VERTEX
8
0
10
45.082237500000005
20
40.186725
30
0
0
VERTEX
8
0
10
44.946256250000005
20
40.1304
30
0
0
VERTEX
8
0
10
44.103740625
20
40.1304
30
0
0
VERTEX
8
0
10
43.879690625
20
40.223203125000005
30
0
0
VERTEX
8
0
10
43.708203125000004
20
40.394690625
30
0
0
VERTEX
8
0
10
43.6154
20
40.618740625
30
0
0
VERTEX
8
0
10
43.6154
20
40.824000000000005
30
0
42
0.41421356237309503
0
VERTEX
8
0
10
43.4122
20
41.0272
30
0
0
VERTEX
8
0
10
41.760840625
20
41.0272
30
0
42
0.198912367379658
0
VERTEX
8
0
10
41.61715625
20
40.967684375000005
30
0
0
VERTEX
8
0
10
40.172312500000004
20
39.522840625
30
0
42
0.198912367379658
0
VERTEX
8
0
10
40.112796875
20
39.37915625
30
0
0
VERTEX
8
0
10
40.112796875
20
34.920837500000005
30
0
42
0.198912367379658
0
VERTEX
8
0
10
40.172312500000004
20
34.777153125000005
30
0
0
VERTEX
8
0
10
62.077153125
20
12.872312500000001
30
0
42
0.198912367379658
0
VERTEX
8
0
10
62.2208375
20
12.812796875
30
0
0
VERTEX
8
0
10
69.579159375
20
12.812796875
30
0
42
0.198912367379658
0
VERTEX
8
0
10
69.72284375000001
20
12.872312500000001
30
0
0
VERTEX
8
0
10
70.127684375
20
13.277153125
30
0
42
0.198912367379658
0
VERTEX
8
0
10
70.1872
20
13.420837500000001
30
0
0
VERTEX
8
0
10
70.1872
20
23.87915625
30
0
42
0.198912367379658
0
VERTEX
8
0
10
70.127684375
20
24.022840625
30
0
0
VERTEX
8
0
10
68.33284375000001
20
25.817684375000002
30
0
42
0.198912367379658
0
VERTEX
8
0
10
68.189159375
20
25.877200000000002
30
0
0
VERTEX
8
0
10
67.63779375
20
25.877200000000002
30
0
42
0.3033500961167425
0
VERTEX
8
0
10
67.45005937500001
20
25.751759375000002
30
0
0
VERTEX
8
0
10
67.414096875
20
25.6649375
30
0
0
VERTEX
8
0
10
66.90505312500001
20
25.15589375
30
0
0
VERTEX
8
0
10
66.23995000000001
20
24.8804
30
0
0
VERTEX
8
0
10
63.120046875
20
24.8804
30
0
0
VERTEX
8
0
10
62.454943750000005
20
25.15589375
30
0
0
VERTEX
8
0
10
61.94589375
20
25.664943750000003
30
0
0
VERTEX
8
0
10
61.6704
20
26.330046875
30
0
0
VERTEX
8
0
10
61.6704
20
27.049950000000003
30
0
0
VERTEX
8
0
10
61.94589375
20
27.715053125
30
0
0
VERTEX
8
0
10
62.454943750000005
20
28.224103125000003
30
0
0
VERTEX
8
0
10
63.120046875
20
28.499596875
30
0
0
VERTEX
8
0
10
66.23995000000001
20
28.499596875
30
0
0
VERTEX
8
0
10
66.90505312500001
20
28.224103125000003
30
0
0
VERTEX
8
0
10
67.414096875
20
27.715059375000003
30
0
42
0.4261232308385347
0
VERTEX
8
0
10
67.63779375
20
27.502796875
30
0
0
VERTEX
8
0
10
68.3737625
20
27.502796875
30
0
42
0.07318597571968914
0
VERTEX
8
0
10
68.43476875
20
27.512796875000003
30
0
0
VERTEX
8
0
10
68.761678125
20
27.512796875000003
30
0
0
VERTEX
8
0
10
69.060409375
20
27.389059375000002
30
0
0
VERTEX
8
0
10
69.31761875000001
20
27.13185
30
0
0
VERTEX
8
0
10
69.3176375
20
27.131828125000002
30
0
0
VERTEX
8
0
10
71.689059375
20
24.760409375000002
30
0
0
VERTEX
8
0
10
71.812796875
20
24.461678125000002
30
0
0
VERTEX
8
0
10
71.812796875
20
12.838318750000001
30
0
0
VERTEX
8
0
10
71.689059375
20
12.539587500000001
30
0
0
VERTEX
8
0
10
71.43185
20
12.282378125000001
30
0
0
VERTEX
8
0
10
71.43182812500001
20
12.282359375
30
0
0
VERTEX
8
0
10
70.71763750000001
20
11.56816875
30
0
0
VERTEX
8
0
10
70.717621875
20
11.568150000000001
30
0
0
VERTEX
8
0
10
70.460409375
20
11.310937500000001
30
0
0
VERTEX
8
0
10
70.16167812500001
20
11.1872
30
0
0
VERTEX
8
0
10
61.63831875
20
11.1872
30
0
0
VERTEX
8
0
10
61.3395875
20
11.310937500000001
30
0
0
VERTEX
8
0
10
61.082378125000005
20
11.568146875
30
0
0
VERTEX
8
0
10
61.082359375
20
11.56816875
30
0
0
VERTEX
8
0
10
46.73003125
20
25.920493750000002
30
0
42
0.5345151537133138
0
VERTEX
8
0
10
46.3986125
20
25.854568750000002
30
0
0
VERTEX
8
0
10
46.355078125000006
20
25.749465625000003
30
0
0
VERTEX
8
0
10
45.958525
20
25.352912500000002
30
0
0
VERTEX
8
0
10
45.44040625
20
25.1383
30
0
0
VERTEX
8
0
10
44.879590625
20
25.1383
30
0
0
VERTEX
8
0
10
44.518350000000005
20
25.28793125
30
0
42
0.09849332019684784
0
VERTEX
8
0
10
44.4405875
20
25.3034
30
0
0
VERTEX
8
0
10
40.404428125
20
25.3034
30
0
0
VERTEX
8
0
10
39.946990625000005
20
25.492875
30
0
0
VERTEX
8
0
10
36.984875
20
28.454990625
30
0
0
VERTEX
8
0
10
36.7954
20
28.912428125
30
0
0
VERTEX
8
0
10
36.7954
20
30.2422
30
0
42
0.41421356237309503
0
VERTEX
8
0
10
36.5922
20
30.445400000000003
30
0
0
VERTEX
8
0
10
33.907796875
20
30.445400000000003
30
0
42
0.41421356237309503
0
VERTEX
8
0
10
33.704596875
20
30.2422
30
0
0
VERTEX
8
0
10
33.704596875
20
25.172540625
30
0
0
VERTEX
8
0
10
33.49989375
20
24.67834375
30
0
0
VERTEX
8
0
10
33.12165625
20
24.300106250000002
30
0
42
0.10970068254868597
0
VERTEX
8
0
10
33.039265625
20
24.2566375
30
0
0
VERTEX
8
0
10
32.577568750000005
20
24.0654
30
0
0
VERTEX
8
0
10
27.847796875
20
24.0654
30
0
42
0.41421356237309503
0
VERTEX
8
0
10
27.644596875
20
23.8622
30
0
0
VERTEX
8
0
10
27.644596875
20
17.452428125
30
0
0
VERTEX
8
0
10
27.455121875
20
16.994990625
30
0
0
VERTEX
8
0
10
25.30500625
20
14.844875
30
0
0
VERTEX
8
0
10
24.84756875
20
14.6554
30
0
0
VERTEX
8
0
10
20.9997
20
14.6554
30
0
42
0.198912367379658
0
VERTEX
8
0
10
20.856015625
20
14.595884375
30
0
0
VERTEX
8
0
10
19.1041125
20
12.84398125
30
0
42
0.198912367379658
0
VERTEX
8
0
10
19.044596875
20
12.700296875000001
30
0
0
VERTEX
8
0
10
19.044596875
20
9.5997
30
0
42
0.198912367379658
0
VERTEX
8
0
10
19.1041125
20
9.456015625000001
30
0
0
VERTEX
8
0
10
20.766015625
20
7.794112500000001
30
0
42
0.198912367379658
0
VERTEX
8
0
10
20.9097
20
7.734596875
30
0
0
VERTEX
8
0
10
31.0122
20
7.734596875
30
0
42
0.41421356237309503
0
VERTEX
8
0
10
31.215400000000002
20
7.937796875
30
0
0
VERTEX
8
0
10
31.215400000000002
20
9.27756875
30
0
0
VERTEX
8
0
10
31.404875
20
9.735003125
30
0
0
VERTEX
8
0
10
31.633971875
20
9.9641
30
0
42
0.6735085104787972
0
VERTEX
8
0
10
31.4873
20
10.3109625
30
0
0
VERTEX
8
0
10
28.182275
20
10.262359375
30
0
42
0.15633563548458582
0
VERTEX
8
0
10
28.064725000000003
20
10.22276875
30
0
0
VERTEX
8
0
10
26.621059375
20
9.159012500000001
30
0
42
0.03546604452808387
0
VERTEX
8
0
10
26.59915
20
9.140334375
30
0
0
VERTEX
8
0
10
26.495940625000003
20
9.038881250000001
30
0
42
0.1410282953466437
0
VERTEX
8
0
10
26.39130625
20
8.989721875
30
0
0
VERTEX
8
0
10
26.3389875
20
8.95116875
30
0
0
VERTEX
8
0
10
26.198471875000003
20
8.9164375
30
0
42
0.03546744331997505
0
VERTEX
8
0
10
26.17108125
20
8.907565625
30
0
0
VERTEX
8
0
10
26.036896875
20
8.853325
30
0
42
0.14104927147594187
0
VERTEX
8
0
10
25.921396875000003
20
8.847953125
30
0
0
VERTEX
8
0
10
25.858318750000002
20
8.832359375000001
30
0
0
VERTEX
8
0
10
25.715215625000003
20
8.854040625
30
0
42
0.035466531719870055
0
VERTEX
8
0
10
25.686515625000002
20
8.856328125000001
30
0
0
VERTEX
8
0
10
22.931900000000002
20
8.879940625
30
0
42
0.10495708327570989
0
VERTEX
8
0
10
22.84255625
20
8.860000000000001
30
0
0
VERTEX
8
0
10
21.773950000000003
20
8.860000000000001
30
0
0
VERTEX
8
0
10
21.03
20
9.603950000000001
30
0
0
VERTEX
8
0
10
21.03
20
10.656046875000001
30
0
0
VERTEX
8
0
10
21.773950000000003
20
11.399996875000001
30
0
0
VERTEX
8
0
10
22.834387500000002
20
11.399996875000001
30
0
42
0.13725836643886388
0
VERTEX
8
0
10
22.939315625000003
20
11.369159375
30
0
0
VERTEX
8
0
10
25.32800625
20
11.348684375000001
30
0
42
0.1623005326067944
0
VERTEX
8
0
10
25.450284375000003
20
11.388290625
30
0
0
VERTEX
8
0
10
26.8652875
20
12.430925
30
0
42
0.04129544276083891
0
VERTEX
8
0
10
26.890531250000002
20
12.452959375
30
0
0
VERTEX
8
0
10
26.97955
20
12.5446375
30
0
42
0.1540772433550348
0
VERTEX
8
0
10
27.094931250000002
20
12.6001375
30
0
0
VERTEX
8
0
10
27.161009375000003
20
12.648828125000001
30
0
0
VERTEX
8
0
10
27.285065625
20
12.679490625000001
30
0
42
0.041299943585707405
0
VERTEX
8
0
10
27.316825
20
12.690184375000001
30
0
0
VERTEX
8
0
10
27.434159375
20
12.740821875
30
0
42
0.15408264715640707
0
VERTEX
8
0
10
27.562003125
20
12.747943750000001
30
0
0
VERTEX
8
0
10
27.641675000000003
20
12.767637500000001
30
0
0
VERTEX
8
0
10
27.768021875000002
20
12.74849375
30
0
42
0.041292343997242714
0
VERTEX
8
0
10
27.801450000000003
20
12.746221875
30
0
0
VERTEX
8
0
10
32.689234375
20
12.818103125
30
0
0
VERTEX
8
0
10
33.14941875
20
12.635368750000001
30
0
0
VERTEX
8
0
10
33.35039375
20
12.440215625
30
0
42
0.19509398185009647
0
VERTEX
8
0
10
33.49195
20
12.382796875
30
0
0
VERTEX
8
0
10
36.691678125
20
12.382796875
30
0
0
VERTEX
8
0
10
36.990409375
20
12.259059375000001
30
0
0
VERTEX
8
0
10
39.789059375
20
9.460409375000001
30
0
0
VERTEX
8
0
10
39.912796875000005
20
9.161678125
30
0
0
VERTEX
8
0
10
39.912796875000005
20
4.03831875
30
0
0
VERTEX
8
0
10
39.789059375
20
3.7395875000000003
30
0
0
VERTEX
8
0
10
39.53183125
20
3.482359375
30
0
0
VERTEX
8
0
10
39.167637500000005
20
3.11816875
30
0
0
VERTEX
8
0
10
39.167621875
20
3.11815
30
0
0
VERTEX
8
0
10
38.910409375
20
2.8609375000000004
30
0
0
VERTEX
8
0
10
38.611678125000005
20
2.7372
30
0
0
SEQEND
0
POLYLINE
66
1
8
16_copper
10
0.0
20
0.0
30
0.0
70
1
0
VERTEX
8
0
10
4.999984375
20
44.999984375000004
30
0
0
VERTEX
8
0
10
4.999984375
20
45.000012500000004
30
0
0
VERTEX
8
0
10
5.0000125
20
45.000012500000004
30
0
0
VERTEX
8
0
10
5.0000125
20
44.999984375000004
30
0
0
SEQEND
0
POLYLINE
66
1
8
16_copper
10
0.0
20
0.0
30
0.0
70
1
0
VERTEX
8
0
10
69.999984375
20
44.999984375000004
30
0
0
VERTEX
8
0
10
69.999984375
20
45.000012500000004
30
0
0
VERTEX
8
0
10
70.0000125
20
45.000012500000004
30
0
0
VERTEX
8
0
10
70.0000125
20
44.999984375000004
30
0
0
SEQEND
0
POLYLINE
66
1
8
16_copper
10
0.0
20
0.0
30
0.0
70
1
0
VERTEX
8
0
10
69.533571875
20
41.855578125
30
0
0
VERTEX
8
0
10
69.227596875
20
41.9164375
30
0
0
VERTEX
8
0
10
68.9290625
20
42.007000000000005
30
0
0
VERTEX
8
0
10
68.6408875
20
42.126365625000005
30
0
0
VERTEX
8
0
10
68.36575625
20
42.273425
30
0
0
VERTEX
8
0
10
68.106375
20
42.446737500000005
30
0
0
VERTEX
8
0
10
67.86523125000001
20
42.644640625
30
0
0
VERTEX
8
0
10
67.64464062500001
20
42.86523125
30
0
0
VERTEX
8
0
10
67.4467375
20
43.106375
30
0
0
VERTEX
8
0
10
67.273425
20
43.365756250000004
30
0
0
VERTEX
8
0
10
67.126365625
20
43.640887500000005
30
0
0
VERTEX
8
0
10
67.007
20
43.9290625
30
0
0
VERTEX
8
0
10
66.9164375
20
44.227596875
30
0
0
VERTEX
8
0
10
66.85557812500001
20
44.533571875
30
0
0
VERTEX
8
0
10
66.849665625
20
44.5936
30
0
0
VERTEX
8
0
10
69.59360000000001
20
44.5936
30
0
0
VERTEX
8
0
10
69.59360000000001
20
41.849665625
30
0
0
SEQEND
0
POLYLINE
66
1
8
16_copper
10
0.0
20
0.0
30
0.0
70
1
0
VERTEX
8
0
10
5.40639375
20
44.5936
30
0
0
VERTEX
8
0
10
8.15033125
20
44.5936
30
0
0
VERTEX
8
0
10
8.14441875
20
44.533575
30
0
0
VERTEX
8
0
10
8.083559375
20
44.227596875
30
0
0
VERTEX
8
0
10
7.992996875
20
43.9290625
30
0
0
VERTEX
8
0
10
7.873631250000001
20
43.640887500000005
30
0
0
VERTEX
8
0
10
7.726571875
20
43.365756250000004
30
0
0
VERTEX
8
0
10
7.5532593750000006
20
43.106375
30
0
0
VERTEX
8
0
10
7.355356250000001
20
42.86523125
30
0
0
VERTEX
8
0
10
7.134765625
20
42.644640625
30
0
0
VERTEX
8
0
10
6.893621875
20
42.446737500000005
30
0
0
VERTEX
8
0
10
6.634240625
20
42.273425
30
0
0
VERTEX
8
0
10
6.359109375
20
42.126365625000005
30
0
0
VERTEX
8
0
10
6.070934375
20
42.007000000000005
30
0
0
VERTEX
8
0
10
5.7724
20
41.9164375
30
0
0
VERTEX
8
0
10
5.466425
20
41.855578125
30
0
0
VERTEX
8
0
10
5.40639375
20
41.849665625
30
0
0
SEQEND
0
POLYLINE
66
1
8
16_copper
10
0.0
20
0.0
30
0.0
70
1
0
VERTEX
8
0
10
70.40639375
20
44.5936
30
0
0
VERTEX
8
0
10
73.15033125000001
20
44.5936
30
0
0
VERTEX
8
0
10
73.14441875
20
44.533575
30
0
0
VERTEX
8
0
10
73.08355937500001
20
44.227596875
30
0
0
VERTEX
8
0
10
72.992996875
20
43.9290625
30
0
0
VERTEX
8
0
10
72.87363125
20
43.640887500000005
30
0
0
VERTEX
8
0
10
72.726571875
20
43.365756250000004
30
0
0
VERTEX
8
0
10
72.55325937500001
20
43.106375
30
0
0
VERTEX
8
0
10
72.35535625
20
42.86523125
30
0
0
VERTEX
8
0
10
72.134765625
20
42.644640625
30
0
0
VERTEX
8
0
10
71.89362187500001
20
42.446737500000005
30
0
0
VERTEX
8
0
10
71.634240625
20
42.273425
30
0
0
VERTEX
8
0
10
71.359109375
20
42.126365625000005
30
0
0
VERTEX
8
0
10
71.07093437500001
20
42.007000000000005
30
0
0
VERTEX
8
0
10
70.7724
20
41.9164375
30
0
0
VERTEX
8
0
10
70.466425
20
41.855578125
30
0
0
VERTEX
8
0
10
70.40639375
20
41.849665625
30
0
0
SEQEND
0
POLYLINE
66
1
8
16_copper
10
0.0
20
0.0
30
0.0
70
1
0
VERTEX
8
0
10
4.533571875
20
41.855578125
30
0
0
VERTEX
8
0
10
4.227596875000001
20
41.9164375
30
0
0
VERTEX
8
0
10
3.9290625
20
42.007000000000005
30
0
0
VERTEX
8
0
10
3.6408875000000003
20
42.126365625000005
30
0
0
VERTEX
8
0
10
3.36575625
20
42.273425
30
0
0
VERTEX
8
0
10
3.1063750000000003
20
42.446737500000005
30
0
0
VERTEX
8
0
10
2.8652312500000003
20
42.644640625
30
0
0
VERTEX
8
0
10
2.644640625
20
42.86523125
30
0
0
VERTEX
8
0
10
2.4467375000000002
20
43.106375
30
0
0
VERTEX
8
0
10
2.273425
20
43.365756250000004
30
0
0
VERTEX
8
0
10
2.126365625
20
43.640887500000005
30
0
0
VERTEX
8
0
10
2.007
20
43.9290625
30
0
0
VERTEX
8
0
10
1.9164375
20
44.227596875
30
0
0
VERTEX
8
0
10
1.855578125
20
44.533571875
30
0
0
VERTEX
8
0
10
1.849665625
20
44.5936
30
0
0
VERTEX
8
0
10
4.5936
20
44.5936
30
0
0
VERTEX
8
0
10
4.5936
20
41.849665625
30
0
0
SEQEND
0
POLYLINE
66
1
8
16_copper
10
0.0
20
0.0
30
0.0
70
1
0
VERTEX
8
0
10
48.635000000000005
20
42.0432125
30
0
0
VERTEX
8
0
10
48.635000000000005
20
42.940000000000005
30
0
0
VERTEX
8
0
10
48.5382125
20
42.940000000000005
30
0
0
VERTEX
8
0
10
48.5382125
20
43.193996875
30
0
0
VERTEX
8
0
10
48.668434375000004
20
43.193996875
30
0
0
VERTEX
8
0
10
48.733050000000006
20
43.176684375
30
0
0
VERTEX
8
0
10
48.790953125
20
43.143253125
30
0
0
VERTEX
8
0
10
48.838253125
20
43.095953125
30
0
0
VERTEX
8
0
10
48.871684375
20
43.038050000000005
30
0
0
VERTEX
8
0
10
48.888996875000004
20
42.973434375000004
30
0
0
VERTEX
8
0
10
48.888996875000004
20
42.0432125
30
0
0
SEQEND
0
POLYLINE
66
1
8
16_copper
10
0.0
20
0.0
30
0.0
70
1
0
VERTEX
8
0
10
48.5382125
20
40.486000000000004
30
0
0
VERTEX
8
0
10
48.5382125
20
40.74
30
0
0
VERTEX
8
0
10
48.635000000000005
20
40.74
30
0
0
VERTEX
8
0
10
48.635000000000005
20
41.63678125
30
0
0
VERTEX
8
0
10
48.888996875000004
20
41.63678125
30
0
0
VERTEX
8
0
10
48.888996875000004
20
40.706562500000004
30
0
0
VERTEX
8
0
10
48.871684375
20
40.641946875
30
0
0
VERTEX
8
0
10
48.838253125
20
40.58404375
30
0
0
VERTEX
8
0
10
48.790953125
20
40.53674375
30
0
0
VERTEX
8
0
10
48.733050000000006
20
40.5033125
30
0
0
VERTEX
8
0
10
48.668434375000004
20
40.486000000000004
30
0
0
SEQEND
0
POLYLINE
66
1
8
16_copper
10
0.0
20
0.0
30
0.0
70
1
0
VERTEX
8
0
10
45.960100000000004
20
23.1952125
30
0
0
VERTEX
8
0
10
45.960100000000004
20
23.323409375
30
0
0
VERTEX
8
0
10
45.491409375
20
23.7921
30
0
0
VERTEX
8
0
10
45.3632125
20
23.7921
30
0
0
VERTEX
8
0
10
45.3632125
20
24.046096875
30
0
0
VERTEX
8
0
10
45.596618750000005
20
24.046096875
30
0
0
VERTEX
8
0
10
46.214096875
20
23.428618750000002
30
0
0
VERTEX
8
0
10
46.214096875
20
23.1952125
30
0
0
SEQEND
0
POLYLINE
66
1
8
16_copper
10
0.0
20
0.0
30
0.0
70
1
0
VERTEX
8
0
10
44.105900000000005
20
23.1952125
30
0
0
VERTEX
8
0
10
44.105900000000005
20
23.428618750000002
30
0
0
VERTEX
8
0
10
44.723378125
20
24.046096875
30
0
0
VERTEX
8
0
10
44.95678125
20
24.046096875
30
0
0
VERTEX
8
0
10
44.95678125
20
23.7921
30
0
0
VERTEX
8
0
10
44.828590625000004
20
23.7921
30
0
0
VERTEX
8
0
10
44.3599
20
23.323409375
30
0
0
VERTEX
8
0
10
44.3599
20
23.1952125
30
0
0
SEQEND
0
POLYLINE
66
1
8
16_copper
10
0.0
20
0.0
30
0.0
70
1
0
VERTEX
8
0
10
32.5632125
20
23.0032125
30
0
0
VERTEX
8
0
10
32.5632125
20
23.5883
30
0
0
VERTEX
8
0
10
32.597100000000005
20
23.581559375
30
0
0
VERTEX
8
0
10
32.744996875
20
23.520296875
30
0
0
VERTEX
8
0
10
32.878121875000005
20
23.43134375
30
0
0
VERTEX
8
0
10
32.99134375
20
23.318121875000003
30
0
0
VERTEX
8
0
10
33.080296875
20
23.184996875
30
0
0
VERTEX
8
0
10
33.141559375
20
23.037100000000002
30
0
0
VERTEX
8
0
10
33.1483
20
23.0032125
30
0
0
SEQEND
0
POLYLINE
66
1
8
16_copper
10
0.0
20
0.0
30
0.0
70
1
0
VERTEX
8
0
10
31.571696875
20
23.0032125
30
0
0
VERTEX
8
0
10
31.578437500000003
20
23.037100000000002
30
0
0
VERTEX
8
0
10
31.6397
20
23.184996875
30
0
0
VERTEX
8
0
10
31.728653125
20
23.318121875000003
30
0
0
VERTEX
8
0
10
31.841875
20
23.43134375
30
0
0
VERTEX
8
0
10
31.975
20
23.520296875
30
0
0
VERTEX
8
0
10
32.122896875
20
23.581559375
30
0
0
VERTEX
8
0
10
32.15678125
20
23.588296875
30
0
0
VERTEX
8
0
10
32.15678125
20
23.0032125
30
0
0
SEQEND
0
POLYLINE
66
1
8
16_copper
10
0.0
20
0.0
30
0.0
70
1
0
VERTEX
8
0
10
44.723378125
20
21.937900000000003
30
0
0
VERTEX
8
0
10
44.105900000000005
20
22.555378125
30
0
0
VERTEX
8
0
10
44.105900000000005
20
22.78878125
30
0
0
VERTEX
8
0
10
44.3599
20
22.78878125
30
0
0
VERTEX
8
0
10
44.3599
20
22.660590625
30
0
0
VERTEX
8
0
10
44.828590625000004
20
22.1919
30
0
0
VERTEX
8
0
10
44.95678125
20
22.1919
30
0
0
VERTEX
8
0
10
44.95678125
20
21.937900000000003
30
0
0
SEQEND
0
POLYLINE
66
1
8
16_copper
10
0.0
20
0.0
30
0.0
70
1
0
VERTEX
8
0
10
45.3632125
20
21.937900000000003
30
0
0
VERTEX
8
0
10
45.3632125
20
22.1919
30
0
0
VERTEX
8
0
10
45.491409375
20
22.1919
30
0
0
VERTEX
8
0
10
45.960100000000004
20
22.660590625
30
0
0
VERTEX
8
0
10
45.960100000000004
20
22.78878125
30
0
0
VERTEX
8
0
10
46.21409375
20
22.78878125
30
0
0
VERTEX
8
0
10
46.214096875
20
22.555378125
30
0
0
VERTEX
8
0
10
45.596618750000005
20
21.937900000000003
30
0
0
SEQEND
0
POLYLINE
66
1
8
16_copper
10
0.0
20
0.0
30
0.0
70
1
0
VERTEX
8
0
10
32.5632125
20
22.59678125
30
0
0
VERTEX
8
0
10
33.148296875
20
22.59678125
30
0
0
VERTEX
8
0
10
33.141559375
20
22.562896875
30
0
0
VERTEX
8
0
10
33.080296875
20
22.415000000000003
30
0
0
VERTEX
8
0
10
32.99134375
20
22.281875
30
0
0
VERTEX
8
0
10
32.878121875000005
20
22.168653125000002
30
0
0
VERTEX
8
0
10
32.744996875
20
22.079700000000003
30
0
0
VERTEX
8
0
10
32.597100000000005
20
22.0184375
30
0
0
VERTEX
8
0
10
32.5632125
20
22.011696875000002
30
0
0
SEQEND
0
POLYLINE
66
1
8
16_copper
10
0.0
20
0.0
30
0.0
70
1
0
VERTEX
8
0
10
32.122896875
20
22.0184375
30
0
0
VERTEX
8
0
10
31.975
20
22.079700000000003
30
0
0
VERTEX
8
0
10
31.841875
20
22.168653125000002
30
0
0
VERTEX
8
0
10
31.728653125
20
22.281875
30
0
0
VERTEX
8
0
10
31.6397
20
22.415000000000003
30
0
0
VERTEX
8
0
10
31.578437500000003
20
22.562896875
30
0
0
VERTEX
8
0
10
31.5717
20
22.59678125
30
0
0
VERTEX
8
0
10
32.15678125
20
22.59678125
30
0
0
VERTEX
8
0
10
32.15678125
20
22.0117
30
0
0
SEQEND
0
POLYLINE
66
1
8
16_copper
10
0.0
20
0.0
30
0.0
70
1
0
VERTEX
8
0
10
32.5632125
20
20.4632125
30
0
0
VERTEX
8
0
10
32.5632125
20
21.0483
30
0
0
VERTEX
8
0
10
32.597100000000005
20
21.041559375000002
30
0
0
VERTEX
8
0
10
32.744996875
20
20.980296875
30
0
0
VERTEX
8
0
10
32.878121875000005
20
20.89134375
30
0
0
VERTEX
8
0
10
32.99134375
20
20.778121875
30
0
0
VERTEX
8
0
10
33.080296875
20
20.644996875
30
0
0
VERTEX
8
0
10
33.141559375
20
20.4971
30
0
0
VERTEX
8
0
10
33.1483
20
20.4632125
30
0
0
SEQEND
0
POLYLINE
66
1
8
16_copper
10
0.0
20
0.0
30
0.0
70
1
0
VERTEX
8
0
10
31.571696875
20
20.4632125
30
0
0
VERTEX
8
0
10
31.578437500000003
20
20.4971
30
0
0
VERTEX
8
0
10
31.6397
20
20.644996875
30
0
0
VERTEX
8
0
10
31.728653125
20
20.778121875
30
0
0
VERTEX
8
0
10
31.841875
20
20.89134375
30
0
0
VERTEX
8
0
10
31.975
20
20.980296875
30
0
0
VERTEX
8
0
10
32.122896875
20
21.041559375000002
30
0
0
VERTEX
8
0
10
32.15678125
20
21.048296875000002
30
0
0
VERTEX
8
0
10
32.15678125
20
20.4632125
30
0
0
SEQEND
0
POLYLINE
66
1
8
16_copper
10
0.0
20
0.0
30
0.0
70
1
0
VERTEX
8
0
10
32.5632125
20
20.05678125
30
0
0
VERTEX
8
0
10
33.148296875
20
20.05678125
30
0
0
VERTEX
8
0
10
33.141559375
20
20.022896875
30
0
0
VERTEX
8
0
10
33.080296875
20
19.875
30
0
0
VERTEX
8
0
10
32.99134375
20
19.741875
30
0
0
VERTEX
8
0
10
32.878121875000005
20
19.628653125
30
0
0
VERTEX
8
0
10
32.744996875
20
19.5397
30
0
0
VERTEX
8
0
10
32.597100000000005
20
19.478437500000002
30
0
0
VERTEX
8
0
10
32.5632125
20
19.471696875
30
0
0
SEQEND
0
POLYLINE
66
1
8
16_copper
10
0.0
20
0.0
30
0.0
70
1
0
VERTEX
8
0
10
32.122896875
20
19.478437500000002
30
0
0
VERTEX
8
0
10
31.975
20
19.5397
30
0
0
VERTEX
8
0
10
31.841875
20
19.628653125
30
0
0
VERTEX
8
0
10
31.728653125
20
19.741875
30
0
0
VERTEX
8
0
10
31.6397
20
19.875
30
0
0
VERTEX
8
0
10
31.578437500000003
20
20.022896875
30
0
0
VERTEX
8
0
10
31.5717
20
20.05678125
30
0
0
VERTEX
8
0
10
32.15678125
20
20.05678125
30
0
0
VERTEX
8
0
10
32.15678125
20
19.471700000000002
30
0
0
SEQEND
0
POLYLINE
66
1
8
16_copper
10
0.0
20
0.0
30
0.0
70
1
0
VERTEX
8
0
10
67.011784375
20
17.09
30
0
42
0.30709298028692233
0
VERTEX
8
0
10
65.927146875
20
17.89
30
0
0
VERTEX
8
0
10
65.08
20
17.89
30
0
0
VERTEX
8
0
10
65.08
20
18.143996875
30
0
0
VERTEX
8
0
10
65.975290625
20
18.143996875
30
0
0
VERTEX
8
0
10
66.1642875
20
18.1191125
30
0
0
VERTEX
8
0
10
66.348378125
20
18.0697875
30
0
0
VERTEX
8
0
10
66.52444375
20
17.996859375
30
0
0
VERTEX
8
0
10
66.68952812500001
20
17.901546875
30
0
0
VERTEX
8
0
10
66.84075
20
17.785509375
30
0
0
VERTEX
8
0
10
66.975509375
20
17.650750000000002
30
0
0
VERTEX
8
0
10
67.091546875
20
17.499528125
30
0
0
VERTEX
8
0
10
67.186859375
20
17.334443750000002
30
0
0
VERTEX
8
0
10
67.2597875
20
17.158378125000002
30
0
0
VERTEX
8
0
10
67.278109375
20
17.09
30
0
0
SEQEND
0
POLYLINE
66
1
8
16_copper
10
0.0
20
0.0
30
0.0
70
1
0
VERTEX
8
0
10
62.0818875
20
17.09
30
0
0
VERTEX
8
0
10
62.100209375000006
20
17.158378125000002
30
0
0
VERTEX
8
0
10
62.1731375
20
17.334443750000002
30
0
0
VERTEX
8
0
10
62.26845
20
17.499528125
30
0
0
VERTEX
8
0
10
62.384487500000006
20
17.650750000000002
30
0
0
VERTEX
8
0
10
62.519246875
20
17.785509375
30
0
0
VERTEX
8
0
10
62.670468750000005
20
17.901546875
30
0
0
VERTEX
8
0
10
62.835553125000004
20
17.996859375
30
0
0
VERTEX
8
0
10
63.011618750000004
20
18.0697875
30
0
0
VERTEX
8
0
10
63.195709375
20
18.1191125
30
0
0
VERTEX
8
0
10
63.38470625
20
18.143996875
30
0
0
VERTEX
8
0
10
64.27999375
20
18.143996875
30
0
0
VERTEX
8
0
10
64.27999375
20
17.89
30
0
0
VERTEX
8
0
10
63.432853125
20
17.89
30
0
0
VERTEX
8
0
10
63.338846875
20
17.882603125
30
0
0
VERTEX
8
0
10
63.2457125
20
17.86785
30
0
0
VERTEX
8
0
10
63.154018750000006
20
17.845837500000002
30
0
0
VERTEX
8
0
10
63.064340625
20
17.816696875
30
0
0
VERTEX
8
0
10
62.977221875000005
20
17.7806125
30
0
0
VERTEX
8
0
10
62.89320312500001
20
17.737803125
30
0
0
VERTEX
8
0
10
62.8128
20
17.688534375
30
0
0
VERTEX
8
0
10
62.7365125
20
17.63310625
30
0
0
VERTEX
8
0
10
62.664809375000004
20
17.571865625
30
0
0
VERTEX
8
0
10
62.598134375
20
17.505190625
30
0
0
VERTEX
8
0
10
62.536893750000004
20
17.433487500000002
30
0
0
VERTEX
8
0
10
62.481465625000006
20
17.357200000000002
30
0
0
VERTEX
8
0
10
62.432196875
20
17.276796875000002
30
0
0
VERTEX
8
0
10
62.389387500000005
20
17.192778125
30
0
0
VERTEX
8
0
10
62.353303125000004
20
17.105659375000002
30
0
0
VERTEX
8
0
10
62.348215625
20
17.09
30
0
0
SEQEND
0
POLYLINE
66
1
8
16_copper
10
0.0
20
0.0
30
0.0
70
1
0
VERTEX
8
0
10
63.38470625
20
15.236
30
0
0
VERTEX
8
0
10
63.195709375
20
15.260884375000002
30
0
0
VERTEX
8
0
10
63.011618750000004
20
15.310209375000001
30
0
0
VERTEX
8
0
10
62.835553125000004
20
15.3831375
30
0
0
VERTEX
8
0
10
62.670468750000005
20
15.47845
30
0
0
VERTEX
8
0
10
62.519246875
20
15.594487500000001
30
0
0
VERTEX
8
0
10
62.384487500000006
20
15.729246875000001
30
0
0
VERTEX
8
0
10
62.26845
20
15.88046875
30
0
0
VERTEX
8
0
10
62.1731375
20
16.045553125
30
0
0
VERTEX
8
0
10
62.100209375000006
20
16.22161875
30
0
0
VERTEX
8
0
10
62.0818875
20
16.28999375
30
0
0
VERTEX
8
0
10
62.348215625
20
16.28999375
30
0
42
0.30709163728396427
0
VERTEX
8
0
10
63.432853125
20
15.49
30
0
0
VERTEX
8
0
10
64.27999375
20
15.49
30
0
0
VERTEX
8
0
10
64.27999375
20
15.236
30
0
0
SEQEND
0
POLYLINE
66
1
8
16_copper
10
0.0
20
0.0
30
0.0
70
1
0
VERTEX
8
0
10
65.08
20
15.236
30
0
0
VERTEX
8
0
10
65.08
20
15.49
30
0
0
VERTEX
8
0
10
65.927146875
20
15.49
30
0
42
0.30709163728396427
0
VERTEX
8
0
10
67.011784375
20
16.28999375
30
0
0
VERTEX
8
0
10
67.278109375
20
16.28999375
30
0
0
VERTEX
8
0
10
67.2597875
20
16.22161875
30
0
0
VERTEX
8
0
10
67.186859375
20
16.045553125
30
0
0
VERTEX
8
0
10
67.091546875
20
15.88046875
30
0
0
VERTEX
8
0
10
66.975509375
20
15.729246875000001
30
0
0
VERTEX
8
0
10
66.84075
20
15.594487500000001
30
0
0
VERTEX
8
0
10
66.68952812500001
20
15.47845
30
0
0
VERTEX
8
0
10
66.52444375
20
15.3831375
30
0
0
VERTEX
8
0
10
66.348378125
20
15.310209375000001
30
0
0
VERTEX
8
0
10
66.1642875
20
15.260884375000002
30
0
0
VERTEX
8
0
10
65.975290625
20
15.236
30
0
0
SEQEND
0
POLYLINE
66
1
8
16_copper
10
0.0
20
0.0
30
0.0
70
1
0
VERTEX
8
0
10
70.40639375
20
5.40639375
30
0
0
VERTEX
8
0
10
70.40639375
20
8.15033125
30
0
0
VERTEX
8
0
10
70.46642187500001
20
8.14441875
30
0
0
VERTEX
8
0
10
70.7724
20
8.083559375
30
0
0
VERTEX
8
0
10
71.07093437500001
20
7.992996875
30
0
0
VERTEX
8
0
10
71.359109375
20
7.873631250000001
30
0
0
VERTEX
8
0
10
71.634240625
20
7.726571875
30
0
0
VERTEX
8
0
10
71.89362187500001
20
7.5532593750000006
30
0
0
VERTEX
8
0
10
72.134765625
20
7.355356250000001
30
0
0
VERTEX
8
0
10
72.35535625
20
7.134765625
30
0
0
VERTEX
8
0
10
72.55325937500001
20
6.893621875
30
0
0
VERTEX
8
0
10
72.726571875
20
6.634240625
30
0
0
VERTEX
8
0
10
72.87363125
20
6.359109375
30
0
0
VERTEX
8
0
10
72.992996875
20
6.070934375
30
0
0
VERTEX
8
0
10
73.08355937500001
20
5.7724
30
0
0
VERTEX
8
0
10
73.14441875
20
5.466421875
30
0
0
VERTEX
8
0
10
73.15033125000001
20
5.40639375
30
0
0
SEQEND
0
POLYLINE
66
1
8
16_copper
10
0.0
20
0.0
30
0.0
70
1
0
VERTEX
8
0
10
1.849665625
20
5.40639375
30
0
0
VERTEX
8
0
10
1.855578125
20
5.466425
30
0
0
VERTEX
8
0
10
1.9164375
20
5.7724
30
0
0
VERTEX
8
0
10
2.007
20
6.070934375
30
0
0
VERTEX
8
0
10
2.126365625
20
6.359109375
30
0
0
VERTEX
8
0
10
2.273425
20
6.634240625
30
0
0
VERTEX
8
0
10
2.4467375000000002
20
6.893621875
30
0
0
VERTEX
8
0
10
2.644640625
20
7.134765625
30
0
0
VERTEX
8
0
10
2.8652312500000003
20
7.355356250000001
30
0
0
VERTEX
8
0
10
3.1063750000000003
20
7.5532593750000006
30
0
0
VERTEX
8
0
10
3.36575625
20
7.726571875
30
0
0
VERTEX
8
0
10
3.6408875000000003
20
7.873631250000001
30
0
0
VERTEX
8
0
10
3.9290625
20
7.992996875
30
0
0
VERTEX
8
0
10
4.227596875000001
20
8.083559375
30
0
0
VERTEX
8
0
10
4.533575
20
8.14441875
30
0
0
VERTEX
8
0
10
4.5936
20
8.15033125
30
0
0
VERTEX
8
0
10
4.5936
20
5.40639375
30
0
0
SEQEND
0
POLYLINE
66
1
8
16_copper
10
0.0
20
0.0
30
0.0
70
1
0
VERTEX
8
0
10
66.849665625
20
5.40639375
30
0
0
VERTEX
8
0
10
66.85557812500001
20
5.466425
30
0
0
VERTEX
8
0
10
66.9164375
20
5.7724
30
0
0
VERTEX
8
0
10
67.007
20
6.070934375
30
0
0
VERTEX
8
0
10
67.126365625
20
6.359109375
30
0
0
VERTEX
8
0
10
67.273425
20
6.634240625
30
0
0
VERTEX
8
0
10
67.4467375
20
6.893621875
30
0
0
VERTEX
8
0
10
67.64464062500001
20
7.134765625
30
0
0
VERTEX
8
0
10
67.86523125000001
20
7.355356250000001
30
0
0
VERTEX
8
0
10
68.106375
20
7.5532593750000006
30
0
0
VERTEX
8
0
10
68.36575625
20
7.726571875
30
0
0
VERTEX
8
0
10
68.6408875
20
7.873631250000001
30
0
0
VERTEX
8
0
10
68.9290625
20
7.992996875
30
0
0
VERTEX
8
0
10
69.227596875
20
8.083559375
30
0
0
VERTEX
8
0
10
69.533575
20
8.14441875
30
0
0
VERTEX
8
0
10
69.59360000000001
20
8.15033125
30
0
0
VERTEX
8
0
10
69.59360000000001
20
5.40639375
30
0
0
SEQEND
0
POLYLINE
66
1
8
16_copper
10
0.0
20
0.0
30
0.0
70
1
0
VERTEX
8
0
10
5.40639375
20
5.40639375
30
0
0
VERTEX
8
0
10
5.40639375
20
8.15033125
30
0
0
VERTEX
8
0
10
5.466421875
20
8.14441875
30
0
0
VERTEX
8
0
10
5.7724
20
8.083559375
30
0
0
VERTEX
8
0
10
6.070934375
20
7.992996875
30
0
0
VERTEX
8
0
10
6.359109375
20
7.873631250000001
30
0
0
VERTEX
8
0
10
6.634240625
20
7.726571875
30
0
0
VERTEX
8
0
10
6.893621875
20
7.5532593750000006
30
0
0
VERTEX
8
0
10
7.134765625
20
7.355356250000001
30
0
0
VERTEX
8
0
10
7.355356250000001
20
7.134765625
30
0
0
VERTEX
8
0
10
7.5532593750000006
20
6.893621875
30
0
0
VERTEX
8
0
10
7.726571875
20
6.634240625
30
0
0
VERTEX
8
0
10
7.873631250000001
20
6.359109375
30
0
0
VERTEX
8
0
10
7.992996875
20
6.070934375
30
0
0
VERTEX
8
0
10
8.083559375
20
5.7724
30
0
0
VERTEX
8
0
10
8.14441875
20
5.466421875
30
0
0
VERTEX
8
0
10
8.15033125
20
5.40639375
30
0
0
SEQEND
0
POLYLINE
66
1
8
16_copper
10
0.0
20
0.0
30
0.0
70
1
0
VERTEX
8
0
10
69.999984375
20
4.999984375
30
0
0
VERTEX
8
0
10
69.999984375
20
5.0000125
30
0
0
VERTEX
8
0
10
70.0000125
20
5.0000125
30
0
0
VERTEX
8
0
10
70.0000125
20
4.999984375
30
0
0
SEQEND
0
POLYLINE
66
1
8
16_copper
10
0.0
20
0.0
30
0.0
70
1
0
VERTEX
8
0
10
4.999984375
20
4.999984375
30
0
0
VERTEX
8
0
10
4.999984375
20
5.0000125
30
0
0
VERTEX
8
0
10
5.0000125
20
5.0000125
30
0
0
VERTEX
8
0
10
5.0000125
20
4.999984375
30
0
0
SEQEND
0
POLYLINE
66
1
8
16_copper
10
0.0
20
0.0
30
0.0
70
1
0
VERTEX
8
0
10
70.40639375
20
4.5936
30
0
0
VERTEX
8
0
10
73.15033125000001
20
4.5936
30
0
0
VERTEX
8
0
10
73.14441875
20
4.533575
30
0
0
VERTEX
8
0
10
73.08355937500001
20
4.227596875000001
30
0
0
VERTEX
8
0
10
72.992996875
20
3.9290625
30
0
0
VERTEX
8
0
10
72.87363125
20
3.6408875000000003
30
0
0
VERTEX
8
0
10
72.726571875
20
3.36575625
30
0
0
VERTEX
8
0
10
72.55325937500001
20
3.1063750000000003
30
0
0
VERTEX
8
0
10
72.35535625
20
2.8652312500000003
30
0
0
VERTEX
8
0
10
72.134765625
20
2.644640625
30
0
0
VERTEX
8
0
10
71.89362187500001
20
2.4467375000000002
30
0
0
VERTEX
8
0
10
71.634240625
20
2.273425
30
0
0
VERTEX
8
0
10
71.359109375
20
2.126365625
30
0
0
VERTEX
8
0
10
71.07093437500001
20
2.007
30
0
0
VERTEX
8
0
10
70.7724
20
1.9164375
30
0
0
VERTEX
8
0
10
70.466425
20
1.855578125
30
0
0
VERTEX
8
0
10
70.40639375
20
1.849665625
30
0
0
SEQEND
0
POLYLINE
66
1
8
16_copper
10
0.0
20
0.0
30
0.0
70
1
0
VERTEX
8
0
10
69.533571875
20
1.855578125
30
0
0
VERTEX
8
0
10
69.227596875
20
1.9164375
30
0
0
VERTEX
8
0
10
68.9290625
20
2.007
30
0
0
VERTEX
8
0
10
68.6408875
20
2.126365625
30
0
0
VERTEX
8
0
10
68.36575625
20
2.273425
30
0
0
VERTEX
8
0
10
68.106375
20
2.4467375000000002
30
0
0
VERTEX
8
0
10
67.86523125000001
20
2.644640625
30
0
0
VERTEX
8
0
10
67.64464062500001
20
2.8652312500000003
30
0
0
VERTEX
8
0
10
67.4467375
20
3.1063750000000003
30
0
0
VERTEX
8
0
10
67.273425
20
3.36575625
30
0
0
VERTEX
8
0
10
67.126365625
20
3.6408875000000003
30
0
0
VERTEX
8
0
10
67.007
20
3.9290625
30
0
0
VERTEX
8
0
10
66.9164375
20
4.227596875000001
30
0
0
VERTEX
8
0
10
66.85557812500001
20
4.533571875
30
0
0
VERTEX
8
0
10
66.849665625
20
4.5936
30
0
0
VERTEX
8
0
10
69.59360000000001
20
4.5936
30
0
0
VERTEX
8
0
10
69.59360000000001
20
1.849665625
30
0
0
SEQEND
0
POLYLINE
66
1
8
16_copper
10
0.0
20
0.0
30
0.0
70
1
0
VERTEX
8
0
10
5.40639375
20
4.5936
30
0
0
VERTEX
8
0
10
8.15033125
20
4.5936
30
0
0
VERTEX
8
0
10
8.14441875
20
4.533575
30
0
0
VERTEX
8
0
10
8.083559375
20
4.227596875000001
30
0
0
VERTEX
8
0
10
7.992996875
20
3.9290625
30
0
0
VERTEX
8
0
10
7.873631250000001
20
3.6408875000000003
30
0
0
VERTEX
8
0
10
7.726571875
20
3.36575625
30
0
0
VERTEX
8
0
10
7.5532593750000006
20
3.1063750000000003
30
0
0
VERTEX
8
0
10
7.355356250000001
20
2.8652312500000003
30
0
0
VERTEX
8
0
10
7.134765625
20
2.644640625
30
0
0
VERTEX
8
0
10
6.893621875
20
2.4467375000000002
30
0
0
VERTEX
8
0
10
6.634240625
20
2.273425
30
0
0
VERTEX
8
0
10
6.359109375
20
2.126365625
30
0
0
VERTEX
8
0
10
6.070934375
20
2.007
30
0
0
VERTEX
8
0
10
5.7724
20
1.9164375
30
0
0
VERTEX
8
0
10
5.466425
20
1.855578125
30
0
0
VERTEX
8
0
10
5.40639375
20
1.849665625
30
0
0
SEQEND
0
POLYLINE
66
1
8
16_copper
10
0.0
20
0.0
30
0.0
70
1
0
VERTEX
8
0
10
4.533571875
20
1.855578125
30
0
0
VERTEX
8
0
10
4.227596875000001
20
1.9164375
30
0
0
VERTEX
8
0
10
3.9290625
20
2.007
30
0
0
VERTEX
8
0
10
3.6408875000000003
20
2.126365625
30
0
0
VERTEX
8
0
10
3.36575625
20
2.273425
30
0
0
VERTEX
8
0
10
3.1063750000000003
20
2.4467375000000002
30
0
0
VERTEX
8
0
10
2.8652312500000003
20
2.644640625
30
0
0
VERTEX
8
0
10
2.644640625
20
2.8652312500000003
30
0
0
VERTEX
8
0
10
2.4467375000000002
20
3.1063750000000003
30
0
0
VERTEX
8
0
10
2.273425
20
3.36575625
30
0
0
VERTEX
8
0
10
2.126365625
20
3.6408875000000003
30
0
0
VERTEX
8
0
10
2.007
20
3.9290625
30
0
0
VERTEX
8
0
10
1.9164375
20
4.227596875000001
30
0
0
VERTEX
8
0
10
1.855578125
20
4.533571875
30
0
0
VERTEX
8
0
10
1.849665625
20
4.5936
30
0
0
VERTEX
8
0
10
4.5936
20
4.5936
30
0
0
VERTEX
8
0
10
4.5936
20
1.849665625
30
0
0
SEQEND
0
POLYLINE
66
1
8
1_copper
10
0.0
20
0.0
30
0.0
70
1
0
VERTEX
8
0
10
66.021153125
20
30.497396875
30
0
42
0.9243912652821668
0
VERTEX
8
0
10
65.927146875
20
32.89
30
0
0
VERTEX
8
0
10
63.432853125
20
32.89
30
0
42
0.9614824550963637
0
VERTEX
8
0
10
63.432853125
20
30.490000000000002
30
0
0
VERTEX
8
0
10
65.927146875
20
30.490000000000002
30
0
0
SEQEND
0
POLYLINE
66
1
8
1_copper
10
0.0
20
0.0
30
0.0
70
1
0
VERTEX
8
0
10
48.860400000000006
20
31.416456250000003
30
0
0
VERTEX
8
0
10
48.860400000000006
20
31.963543750000003
30
0
0
VERTEX
8
0
10
48.473543750000005
20
32.3504
30
0
0
VERTEX
8
0
10
47.92645625
20
32.3504
30
0
0
VERTEX
8
0
10
47.5396
20
31.963543750000003
30
0
0
VERTEX
8
0
10
47.5396
20
31.416456250000003
30
0
0
VERTEX
8
0
10
47.92645625
20
31.029600000000002
30
0
0
VERTEX
8
0
10
48.473543750000005
20
31.029600000000002
30
0
0
SEQEND
0
POLYLINE
66
1
8
16_copper
10
0.0
20
0.0
30
0.0
70
1
0
VERTEX
8
0
10
66.021153125
20
30.497396875
30
0
42
0.9243912652821668
0
VERTEX
8
0
10
65.927146875
20
32.89
30
0
0
VERTEX
8
0
10
63.432853125
20
32.89
30
0
42
0.24841059184705958
0
VERTEX
8
0
10
62.461734375000006
20
32.325
30
0
0
VERTEX
8
0
10
48.49894375
20
32.325
30
0
0
VERTEX
8
0
10
48.473543750000005
20
32.3504
30
0
0
VERTEX
8
0
10
47.92645625
20
32.3504
30
0
0
VERTEX
8
0
10
47.5396
20
31.963543750000003
30
0
0
VERTEX
8
0
10
47.5396
20
31.8932
30
0
0
VERTEX
8
0
10
47.294168750000004
20
31.8932
30
0
0
VERTEX
8
0
10
44.7282
20
34.45916875
30
0
0
VERTEX
8
0
10
44.7282
20
35.54
30
0
0
VERTEX
8
0
10
44.825
20
35.54
30
0
0
VERTEX
8
0
10
44.825
20
37.74
30
0
0
VERTEX
8
0
10
44.225
20
37.74
30
0
0
VERTEX
8
0
10
44.225
20
35.54
30
0
0
VERTEX
8
0
10
44.3218
20
35.54
30
0
0
VERTEX
8
0
10
44.3218
20
34.375
30
0
42
0.198912367379658
0
VERTEX
8
0
10
44.381315625
20
34.231315625
30
0
0
VERTEX
8
0
10
47.066315625
20
31.546315625000002
30
0
42
0.198912367379658
0
VERTEX
8
0
10
47.21
20
31.486800000000002
30
0
0
VERTEX
8
0
10
47.5396
20
31.486800000000002
30
0
0
VERTEX
8
0
10
47.5396
20
31.416456250000003
30
0
0
VERTEX
8
0
10
47.92645625
20
31.029600000000002
30
0
0
VERTEX
8
0
10
48.473543750000005
20
31.029600000000002
30
0
0
VERTEX
8
0
10
48.49894375
20
31.055
30
0
0
VERTEX
8
0
10
62.461734375000006
20
31.055
30
0
42
0.24841059184705958
0
VERTEX
8
0
10
63.432853125
20
30.490000000000002
30
0
0
VERTEX
8
0
10
65.927146875
20
30.490000000000002
30
0
0
SEQEND
0
POLYLINE
66
1
8
1_copper
10
0.0
20
0.0
30
0.0
70
1
0
VERTEX
8
0
10
66.021153125
20
20.497396875
30
0
42
0.9243912652821668
0
VERTEX
8
0
10
65.927146875
20
22.89
30
0
0
VERTEX
8
0
10
63.432853125
20
22.89
30
0
42
0.9614824550963637
0
VERTEX
8
0
10
63.432853125
20
20.490000000000002
30
0
0
VERTEX
8
0
10
65.927146875
20
20.490000000000002
30
0
0
SEQEND
0
POLYLINE
66
1
8
16_copper
10
0.0
20
0.0
30
0.0
70
1
0
VERTEX
8
0
10
66.021153125
20
20.497396875
30
0
42
0.9243912652821668
0
VERTEX
8
0
10
65.927146875
20
22.89
30
0
0
VERTEX
8
0
10
63.432853125
20
22.89
30
0
42
0.3541276265136388
0
VERTEX
8
0
10
62.297225000000005
20
21.8932
30
0
0
VERTEX
8
0
10
55.394168750000006
20
21.8932
30
0
0
VERTEX
8
0
10
42.303200000000004
20
34.98416875
30
0
0
VERTEX
8
0
10
42.303200000000004
20
37.915831250000004
30
0
0
VERTEX
8
0
10
42.934168750000005
20
38.546800000000005
30
0
0
VERTEX
8
0
10
45.165831250000004
20
38.546800000000005
30
0
0
VERTEX
8
0
10
45.5918
20
38.12083125
30
0
0
VERTEX
8
0
10
45.5918
20
37.74
30
0
0
VERTEX
8
0
10
45.495000000000005
20
37.74
30
0
0
VERTEX
8
0
10
45.495000000000005
20
35.54
30
0
0
VERTEX
8
0
10
46.095
20
35.54
30
0
0
VERTEX
8
0
10
46.095
20
36.436800000000005
30
0
0
VERTEX
8
0
10
46.765
20
36.436800000000005
30
0
0
VERTEX
8
0
10
46.765
20
35.54
30
0
0
VERTEX
8
0
10
47.365
20
35.54
30
0
0
VERTEX
8
0
10
47.365
20
37.74
30
0
0
VERTEX
8
0
10
46.765
20
37.74
30
0
0
VERTEX
8
0
10
46.765
20
36.8432
30
0
0
VERTEX
8
0
10
46.095
20
36.8432
30
0
0
VERTEX
8
0
10
46.095
20
37.74
30
0
0
VERTEX
8
0
10
45.998200000000004
20
37.74
30
0
0
VERTEX
8
0
10
45.998200000000004
20
38.205
30
0
42
0.198912367379658
0
VERTEX
8
0
10
45.938684375
20
38.348684375000005
30
0
0
VERTEX
8
0
10
45.393684375
20
38.893684375
30
0
42
0.198912367379658
0
VERTEX
8
0
10
45.25
20
38.9532
30
0
0
VERTEX
8
0
10
42.85
20
38.9532
30
0
42
0.198912367379658
0
VERTEX
8
0
10
42.706315625
20
38.893684375
30
0
0
VERTEX
8
0
10
41.956315625
20
38.143684375
30
0
42
0.198912367379658
0
VERTEX
8
0
10
41.8968
20
38
30
0
0
VERTEX
8
0
10
41.8968
20
34.9
30
0
42
0.198912367379658
0
VERTEX
8
0
10
41.956315625
20
34.756315625
30
0
0
VERTEX
8
0
10
55.166315625
20
21.546315625000002
30
0
42
0.198912367379658
0
VERTEX
8
0
10
55.31
20
21.486800000000002
30
0
0
VERTEX
8
0
10
62.297225000000005
20
21.486800000000002
30
0
42
0.3541276265136388
0
VERTEX
8
0
10
63.432853125
20
20.490000000000002
30
0
0
VERTEX
8
0
10
65.927146875
20
20.490000000000002
30
0
0
SEQEND
0
CIRCLE
8
drills_PTH
10
70
20
5
30
0
40
1.5
0
CIRCLE
8
drills_PTH
10
70
20
45
30
0
40
1.5
0
CIRCLE
8
drills_PTH
10
5
20
45
30
0
40
1.5
0
CIRCLE
8
drills_PTH
10
5
20
5
30
0
40
1.5
0
CIRCLE
8
drills_PTH
10
64.68
20
16.69
30
0
40
0.8
0
CIRCLE
8
drills_PTH
10
64.68
20
21.69
30
0
40
0.8
0
CIRCLE
8
drills_PTH
10
64.68
20
26.69
30
0
40
0.8
0
CIRCLE
8
drills_PTH
10
64.68
20
31.69
30
0
40
0.8
0
CIRCLE
8
drills_PTH
10
8.33
20
30.310000000000002
30
0
40
0.8
0
CIRCLE
8
drills_PTH
10
8.33
20
25.310000000000002
30
0
40
0.8
0
CIRCLE
8
drills_PTH
10
8.33
20
20.310000000000002
30
0
40
0.8
0
CIRCLE
8
drills_PTH
10
45.160000000000004
20
22.992
30
0
40
0.40640000000000004
0
CIRCLE
8
drills_PTH
10
45.160000000000004
20
26.548000000000002
30
0
40
0.40640000000000004
0
CIRCLE
8
drills_PTH
10
22.3
20
10.13
30
0
40
0.40640000000000004
0
CIRCLE
8
drills_PTH
10
22.3
20
20.290000000000003
30
0
40
0.40640000000000004
0
CIRCLE
8
drills_PTH
10
48.2
20
31.69
30
0
40
0.40640000000000004
0
CIRCLE
8
drills_PTH
10
38.04
20
31.69
30
0
40
0.40640000000000004
0
CIRCLE
8
drills_PTH
10
22.3
20
30.35
30
0
40
0.40640000000000004
0
CIRCLE
8
drills_PTH
10
22.3
20
40.510000000000005
30
0
40
0.40640000000000004
0
CIRCLE
8
drills_PTH
10
32.46
20
35.43
30
0
40
0.3048
0
CIRCLE
8
drills_PTH
10
32.46
20
37.97
30
0
40
0.3048
0
CIRCLE
8
drills_PTH
10
32.46
20
40.510000000000005
30
0
40
0.3048
0
CIRCLE
8
drills_PTH
10
32.46
20
6.49
30
0
40
0.3048
0
CIRCLE
8
drills_PTH
10
32.46
20
9.030000000000001
30
0
40
0.3048
0
CIRCLE
8
drills_PTH
10
32.46
20
11.57
30
0
40
0.3048
0
CIRCLE
8
drills_PTH
10
32.36
20
20.26
30
0
40
0.3048
0
CIRCLE
8
drills_PTH
10
32.36
20
22.8
30
0
40
0.3048
0
CIRCLE
8
drills_PTH
10
32.36
20
25.34
30
0
40
0.3048
0
ENDSEC
0
EOF