G04 EAGLE Gerber X2 export*
%TF.Part,Single*%
%TF.FileFunction,Copper,L2,Bot,Mixed*%
%TF.FilePolarity,Positive*%
%TF.GenerationSoftware,Autodesk,EAGLE,9.0.0*%
%TF.CreationDate,2023-01-31T01:08:40Z*%
G75*
%MOMM*%
%FSLAX34Y34*%
%LPD*%
%AMOC8*
5,1,8,0,0,1.08239X$1,22.5*%
G01*
%ADD10P,1.732040X8X292.500000*%
%ADD11C,1.600200*%
%ADD12R,0.600000X2.200000*%
%ADD13C,1.117600*%
%ADD14P,1.429621X8X112.500000*%
%ADD15P,1.429621X8X202.500000*%
%ADD16C,2.400000*%
%ADD17C,5.842000*%
%ADD18C,1.270000*%
%ADD19C,0.406400*%

G36*
X700049Y12706D02*
X700049Y12706D01*
X700114Y12704D01*
X704063Y12926D01*
X704067Y12926D01*
X704072Y12926D01*
X704401Y12973D01*
X712100Y14731D01*
X712159Y14750D01*
X712220Y14762D01*
X712403Y14832D01*
X712482Y14859D01*
X712502Y14871D01*
X712530Y14881D01*
X719645Y18308D01*
X719698Y18340D01*
X719755Y18365D01*
X719917Y18474D01*
X719989Y18517D01*
X720006Y18533D01*
X720030Y18550D01*
X726205Y23474D01*
X726249Y23517D01*
X726299Y23554D01*
X726434Y23697D01*
X726493Y23755D01*
X726506Y23774D01*
X726526Y23795D01*
X731450Y29970D01*
X731484Y30022D01*
X731524Y30069D01*
X731624Y30238D01*
X731669Y30308D01*
X731677Y30330D01*
X731692Y30355D01*
X735119Y37470D01*
X735140Y37529D01*
X735169Y37583D01*
X735228Y37770D01*
X735257Y37849D01*
X735260Y37872D01*
X735269Y37900D01*
X737027Y45599D01*
X737027Y45604D01*
X737029Y45609D01*
X737074Y45937D01*
X737296Y49886D01*
X737294Y49935D01*
X737299Y50000D01*
X737299Y450000D01*
X737294Y450049D01*
X737296Y450114D01*
X737074Y454063D01*
X737074Y454067D01*
X737074Y454072D01*
X737027Y454401D01*
X735269Y462100D01*
X735250Y462159D01*
X735238Y462220D01*
X735168Y462403D01*
X735141Y462482D01*
X735129Y462502D01*
X735119Y462530D01*
X731692Y469645D01*
X731660Y469698D01*
X731635Y469755D01*
X731526Y469917D01*
X731483Y469989D01*
X731467Y470006D01*
X731450Y470030D01*
X726526Y476205D01*
X726483Y476249D01*
X726446Y476299D01*
X726303Y476434D01*
X726245Y476493D01*
X726226Y476506D01*
X726205Y476526D01*
X720030Y481450D01*
X719978Y481484D01*
X719931Y481524D01*
X719796Y481604D01*
X719790Y481609D01*
X719777Y481615D01*
X719762Y481624D01*
X719692Y481669D01*
X719670Y481678D01*
X719645Y481692D01*
X712530Y485119D01*
X712471Y485140D01*
X712417Y485169D01*
X712230Y485228D01*
X712151Y485257D01*
X712128Y485260D01*
X712100Y485269D01*
X704401Y487027D01*
X704396Y487027D01*
X704391Y487029D01*
X704063Y487074D01*
X700114Y487296D01*
X700065Y487294D01*
X700000Y487299D01*
X50000Y487299D01*
X49951Y487294D01*
X49886Y487296D01*
X45937Y487074D01*
X45933Y487074D01*
X45928Y487074D01*
X45599Y487027D01*
X37900Y485269D01*
X37841Y485250D01*
X37780Y485238D01*
X37597Y485168D01*
X37518Y485141D01*
X37498Y485129D01*
X37470Y485119D01*
X30355Y481692D01*
X30302Y481660D01*
X30245Y481635D01*
X30139Y481564D01*
X30067Y481524D01*
X30041Y481501D01*
X30011Y481483D01*
X29994Y481467D01*
X29970Y481450D01*
X23795Y476526D01*
X23751Y476483D01*
X23701Y476446D01*
X23567Y476304D01*
X23507Y476245D01*
X23494Y476226D01*
X23474Y476205D01*
X18550Y470030D01*
X18516Y469978D01*
X18476Y469931D01*
X18376Y469762D01*
X18331Y469692D01*
X18323Y469670D01*
X18308Y469645D01*
X14881Y462530D01*
X14860Y462471D01*
X14831Y462417D01*
X14772Y462230D01*
X14743Y462151D01*
X14740Y462128D01*
X14731Y462100D01*
X12973Y454401D01*
X12973Y454396D01*
X12971Y454391D01*
X12926Y454063D01*
X12704Y450114D01*
X12706Y450065D01*
X12701Y450000D01*
X12701Y50000D01*
X12706Y49951D01*
X12704Y49886D01*
X12926Y45937D01*
X12926Y45933D01*
X12926Y45928D01*
X12973Y45599D01*
X14731Y37900D01*
X14750Y37841D01*
X14762Y37780D01*
X14832Y37597D01*
X14859Y37518D01*
X14871Y37498D01*
X14881Y37470D01*
X18308Y30355D01*
X18340Y30302D01*
X18365Y30245D01*
X18474Y30083D01*
X18517Y30011D01*
X18533Y29994D01*
X18550Y29970D01*
X23474Y23795D01*
X23517Y23751D01*
X23554Y23701D01*
X23697Y23566D01*
X23755Y23507D01*
X23774Y23494D01*
X23795Y23474D01*
X29970Y18550D01*
X30022Y18516D01*
X30069Y18476D01*
X30238Y18376D01*
X30308Y18331D01*
X30330Y18323D01*
X30355Y18308D01*
X37470Y14881D01*
X37529Y14860D01*
X37583Y14831D01*
X37770Y14772D01*
X37849Y14743D01*
X37872Y14740D01*
X37900Y14731D01*
X45599Y12973D01*
X45604Y12973D01*
X45609Y12971D01*
X45937Y12926D01*
X49886Y12704D01*
X49935Y12706D01*
X50000Y12701D01*
X700000Y12701D01*
X700049Y12706D01*
G37*
%LPC*%
G36*
X138883Y27371D02*
X138883Y27371D01*
X135895Y28609D01*
X27109Y137395D01*
X25871Y140383D01*
X25871Y317617D01*
X27109Y320605D01*
X29681Y323177D01*
X57823Y351319D01*
X60395Y353891D01*
X63383Y355129D01*
X148792Y355129D01*
X148818Y355131D01*
X148845Y355129D01*
X149019Y355151D01*
X149192Y355169D01*
X149218Y355176D01*
X149244Y355180D01*
X149410Y355235D01*
X149577Y355287D01*
X149601Y355300D01*
X149626Y355308D01*
X149778Y355395D01*
X149931Y355479D01*
X149952Y355496D01*
X149975Y355509D01*
X150228Y355724D01*
X172276Y377772D01*
X172293Y377793D01*
X172314Y377810D01*
X172421Y377948D01*
X172531Y378084D01*
X172544Y378107D01*
X172560Y378128D01*
X172638Y378285D01*
X172720Y378439D01*
X172728Y378465D01*
X172740Y378489D01*
X172785Y378658D01*
X172835Y378825D01*
X172837Y378852D01*
X172844Y378878D01*
X172871Y379208D01*
X172871Y425617D01*
X174109Y428605D01*
X208895Y463391D01*
X211883Y464629D01*
X491117Y464629D01*
X494105Y463391D01*
X514891Y442605D01*
X516129Y439617D01*
X516129Y374383D01*
X514891Y371395D01*
X503005Y359509D01*
X500017Y358271D01*
X494478Y358271D01*
X494460Y358269D01*
X494442Y358271D01*
X494260Y358250D01*
X494077Y358231D01*
X494060Y358226D01*
X494043Y358224D01*
X493868Y358167D01*
X493692Y358113D01*
X493677Y358105D01*
X493660Y358099D01*
X493500Y358009D01*
X493338Y357921D01*
X493325Y357910D01*
X493309Y357901D01*
X493170Y357781D01*
X493029Y357664D01*
X493018Y357650D01*
X493004Y357638D01*
X492892Y357493D01*
X492777Y357350D01*
X492769Y357334D01*
X492758Y357320D01*
X492676Y357155D01*
X492591Y356993D01*
X492586Y356976D01*
X492578Y356960D01*
X492531Y356781D01*
X492480Y356606D01*
X492478Y356588D01*
X492474Y356571D01*
X492447Y356240D01*
X492447Y354187D01*
X491519Y351946D01*
X489804Y350231D01*
X488594Y349730D01*
X488593Y349730D01*
X487563Y349303D01*
X479137Y349303D01*
X477777Y349867D01*
X477752Y349874D01*
X477728Y349886D01*
X477559Y349933D01*
X477392Y349983D01*
X477365Y349986D01*
X477339Y349993D01*
X477165Y350005D01*
X476991Y350021D01*
X476965Y350018D01*
X476938Y350020D01*
X476763Y349997D01*
X476591Y349980D01*
X476565Y349972D01*
X476539Y349968D01*
X476223Y349867D01*
X474863Y349303D01*
X466437Y349303D01*
X465077Y349867D01*
X465052Y349874D01*
X465028Y349886D01*
X464859Y349933D01*
X464692Y349983D01*
X464665Y349986D01*
X464639Y349993D01*
X464465Y350005D01*
X464291Y350021D01*
X464265Y350018D01*
X464238Y350020D01*
X464063Y349997D01*
X463891Y349980D01*
X463865Y349972D01*
X463839Y349968D01*
X463523Y349867D01*
X462163Y349303D01*
X456096Y349303D01*
X456088Y349302D01*
X456079Y349303D01*
X455885Y349282D01*
X455696Y349263D01*
X455687Y349261D01*
X455678Y349260D01*
X455494Y349201D01*
X455311Y349145D01*
X455303Y349141D01*
X455294Y349138D01*
X455126Y349045D01*
X454957Y348953D01*
X454950Y348948D01*
X454942Y348943D01*
X454795Y348819D01*
X454648Y348696D01*
X454642Y348689D01*
X454635Y348683D01*
X454515Y348531D01*
X454395Y348382D01*
X454391Y348374D01*
X454386Y348367D01*
X454298Y348194D01*
X454210Y348025D01*
X454207Y348016D01*
X454203Y348008D01*
X454151Y347821D01*
X454098Y347638D01*
X454098Y347629D01*
X454095Y347620D01*
X454081Y347427D01*
X454065Y347236D01*
X454066Y347228D01*
X454066Y347219D01*
X454090Y347026D01*
X454112Y346837D01*
X454115Y346828D01*
X454116Y346819D01*
X454177Y346637D01*
X454237Y346454D01*
X454242Y346446D01*
X454244Y346438D01*
X454341Y346271D01*
X454435Y346103D01*
X454441Y346096D01*
X454445Y346089D01*
X454660Y345836D01*
X472381Y328115D01*
X472390Y328107D01*
X472395Y328102D01*
X472398Y328099D01*
X472406Y328090D01*
X472550Y327976D01*
X472692Y327860D01*
X472708Y327852D01*
X472722Y327840D01*
X472887Y327757D01*
X473048Y327671D01*
X473065Y327666D01*
X473081Y327658D01*
X473259Y327609D01*
X473434Y327556D01*
X473452Y327555D01*
X473469Y327550D01*
X473652Y327537D01*
X473835Y327520D01*
X473853Y327522D01*
X473870Y327521D01*
X474052Y327544D01*
X474235Y327563D01*
X474252Y327569D01*
X474270Y327571D01*
X474443Y327629D01*
X474619Y327685D01*
X474635Y327694D01*
X474652Y327699D01*
X474811Y327791D01*
X474971Y327880D01*
X474985Y327891D01*
X475000Y327900D01*
X475253Y328115D01*
X476739Y329601D01*
X487391Y329601D01*
X487433Y329580D01*
X487587Y329498D01*
X487613Y329490D01*
X487637Y329478D01*
X487806Y329433D01*
X487973Y329383D01*
X488000Y329381D01*
X488025Y329374D01*
X488356Y329347D01*
X620813Y329347D01*
X620839Y329349D01*
X620866Y329347D01*
X621040Y329369D01*
X621213Y329387D01*
X621239Y329394D01*
X621265Y329398D01*
X621431Y329453D01*
X621598Y329505D01*
X621622Y329518D01*
X621647Y329526D01*
X621799Y329613D01*
X621952Y329697D01*
X621973Y329714D01*
X621996Y329727D01*
X622249Y329942D01*
X624549Y332242D01*
X628302Y333796D01*
X631200Y334997D01*
X662400Y334997D01*
X669051Y332242D01*
X674142Y327151D01*
X676897Y320500D01*
X676897Y313300D01*
X674142Y306649D01*
X669051Y301558D01*
X667655Y300980D01*
X662751Y298949D01*
X662400Y298803D01*
X631200Y298803D01*
X624549Y301558D01*
X622249Y303858D01*
X622228Y303875D01*
X622211Y303896D01*
X622073Y304003D01*
X621938Y304113D01*
X621914Y304126D01*
X621893Y304142D01*
X621736Y304220D01*
X621582Y304302D01*
X621556Y304310D01*
X621532Y304322D01*
X621363Y304367D01*
X621196Y304417D01*
X621169Y304419D01*
X621143Y304426D01*
X620813Y304453D01*
X488356Y304453D01*
X488330Y304451D01*
X488303Y304453D01*
X488129Y304431D01*
X487956Y304413D01*
X487930Y304406D01*
X487903Y304402D01*
X487738Y304347D01*
X487571Y304295D01*
X487547Y304282D01*
X487522Y304274D01*
X487392Y304199D01*
X482200Y304199D01*
X482192Y304198D01*
X482183Y304199D01*
X481989Y304178D01*
X481800Y304159D01*
X481791Y304157D01*
X481782Y304156D01*
X481598Y304097D01*
X481415Y304041D01*
X481407Y304037D01*
X481398Y304034D01*
X481230Y303941D01*
X481061Y303849D01*
X481054Y303844D01*
X481046Y303839D01*
X480899Y303715D01*
X480752Y303592D01*
X480746Y303585D01*
X480739Y303579D01*
X480619Y303427D01*
X480499Y303278D01*
X480495Y303270D01*
X480490Y303263D01*
X480402Y303090D01*
X480314Y302921D01*
X480311Y302912D01*
X480307Y302904D01*
X480255Y302718D01*
X480202Y302534D01*
X480202Y302525D01*
X480199Y302516D01*
X480185Y302323D01*
X480169Y302132D01*
X480170Y302124D01*
X480170Y302115D01*
X480194Y301922D01*
X480216Y301733D01*
X480219Y301724D01*
X480220Y301715D01*
X480281Y301533D01*
X480341Y301350D01*
X480346Y301342D01*
X480348Y301334D01*
X480445Y301167D01*
X480539Y300999D01*
X480545Y300992D01*
X480549Y300985D01*
X480764Y300732D01*
X555872Y225624D01*
X555893Y225607D01*
X555910Y225586D01*
X556048Y225479D01*
X556184Y225369D01*
X556207Y225356D01*
X556228Y225340D01*
X556385Y225262D01*
X556539Y225180D01*
X556565Y225172D01*
X556589Y225160D01*
X556758Y225115D01*
X556925Y225065D01*
X556952Y225063D01*
X556978Y225056D01*
X557308Y225029D01*
X617222Y225029D01*
X617244Y225031D01*
X617267Y225029D01*
X617444Y225051D01*
X617623Y225069D01*
X617644Y225075D01*
X617666Y225078D01*
X617836Y225134D01*
X618008Y225187D01*
X618027Y225197D01*
X618048Y225204D01*
X618204Y225293D01*
X618362Y225379D01*
X618379Y225393D01*
X618398Y225404D01*
X618533Y225521D01*
X618671Y225636D01*
X618685Y225654D01*
X618702Y225668D01*
X618811Y225810D01*
X618923Y225950D01*
X618933Y225970D01*
X618947Y225988D01*
X619099Y226283D01*
X619458Y227151D01*
X624549Y232242D01*
X631200Y234997D01*
X662400Y234997D01*
X669051Y232242D01*
X674142Y227151D01*
X676897Y220500D01*
X676897Y213300D01*
X674142Y206649D01*
X669051Y201558D01*
X668787Y201449D01*
X663883Y199418D01*
X662400Y198803D01*
X631200Y198803D01*
X624549Y201558D01*
X619458Y206649D01*
X619099Y207517D01*
X619088Y207537D01*
X619081Y207558D01*
X618993Y207714D01*
X618909Y207872D01*
X618894Y207889D01*
X618883Y207909D01*
X618766Y208044D01*
X618652Y208183D01*
X618635Y208197D01*
X618620Y208214D01*
X618479Y208323D01*
X618339Y208436D01*
X618320Y208447D01*
X618302Y208460D01*
X618142Y208540D01*
X617983Y208623D01*
X617962Y208630D01*
X617942Y208640D01*
X617768Y208686D01*
X617597Y208736D01*
X617574Y208738D01*
X617553Y208744D01*
X617222Y208771D01*
X551483Y208771D01*
X548495Y210009D01*
X414109Y344395D01*
X412871Y347383D01*
X412871Y381617D01*
X414109Y384605D01*
X416681Y387177D01*
X421323Y391819D01*
X423895Y394391D01*
X426883Y395629D01*
X454117Y395629D01*
X457105Y394391D01*
X464841Y386655D01*
X465630Y384751D01*
X465640Y384731D01*
X465647Y384710D01*
X465735Y384554D01*
X465820Y384396D01*
X465834Y384379D01*
X465845Y384359D01*
X465962Y384224D01*
X466076Y384085D01*
X466094Y384071D01*
X466108Y384054D01*
X466250Y383945D01*
X466389Y383832D01*
X466409Y383821D01*
X466426Y383808D01*
X466587Y383728D01*
X466746Y383645D01*
X466767Y383638D01*
X466787Y383628D01*
X466961Y383582D01*
X467132Y383532D01*
X467154Y383530D01*
X467176Y383524D01*
X467506Y383497D01*
X474863Y383497D01*
X476223Y382933D01*
X476248Y382926D01*
X476272Y382914D01*
X476440Y382868D01*
X476608Y382817D01*
X476635Y382814D01*
X476661Y382807D01*
X476835Y382795D01*
X477009Y382779D01*
X477035Y382782D01*
X477062Y382780D01*
X477236Y382802D01*
X477409Y382820D01*
X477435Y382828D01*
X477461Y382832D01*
X477777Y382933D01*
X479137Y383497D01*
X487563Y383497D01*
X489804Y382569D01*
X491519Y380854D01*
X492447Y378613D01*
X492447Y376846D01*
X492448Y376838D01*
X492447Y376829D01*
X492468Y376637D01*
X492487Y376446D01*
X492489Y376437D01*
X492490Y376428D01*
X492548Y376246D01*
X492605Y376061D01*
X492609Y376053D01*
X492612Y376044D01*
X492705Y375876D01*
X492797Y375707D01*
X492802Y375700D01*
X492807Y375692D01*
X492931Y375545D01*
X493054Y375398D01*
X493061Y375392D01*
X493067Y375385D01*
X493218Y375266D01*
X493368Y375145D01*
X493376Y375141D01*
X493383Y375136D01*
X493556Y375048D01*
X493725Y374960D01*
X493734Y374957D01*
X493742Y374953D01*
X493928Y374901D01*
X494112Y374848D01*
X494121Y374848D01*
X494130Y374845D01*
X494323Y374831D01*
X494514Y374815D01*
X494522Y374816D01*
X494531Y374816D01*
X494724Y374840D01*
X494913Y374862D01*
X494922Y374865D01*
X494931Y374866D01*
X495114Y374928D01*
X495296Y374987D01*
X495304Y374992D01*
X495312Y374994D01*
X495479Y375091D01*
X495647Y375185D01*
X495654Y375191D01*
X495661Y375195D01*
X495914Y375410D01*
X499276Y378772D01*
X499293Y378793D01*
X499314Y378810D01*
X499420Y378948D01*
X499531Y379084D01*
X499544Y379107D01*
X499560Y379128D01*
X499638Y379284D01*
X499720Y379439D01*
X499728Y379465D01*
X499740Y379489D01*
X499785Y379658D01*
X499835Y379825D01*
X499837Y379852D01*
X499844Y379878D01*
X499871Y380208D01*
X499871Y433792D01*
X499869Y433818D01*
X499871Y433845D01*
X499849Y434019D01*
X499831Y434192D01*
X499824Y434218D01*
X499820Y434244D01*
X499765Y434410D01*
X499713Y434577D01*
X499700Y434601D01*
X499692Y434626D01*
X499605Y434778D01*
X499521Y434931D01*
X499504Y434952D01*
X499491Y434975D01*
X499276Y435228D01*
X486728Y447776D01*
X486707Y447793D01*
X486690Y447814D01*
X486552Y447921D01*
X486416Y448031D01*
X486393Y448044D01*
X486372Y448060D01*
X486215Y448138D01*
X486061Y448220D01*
X486035Y448228D01*
X486011Y448240D01*
X485842Y448285D01*
X485675Y448335D01*
X485648Y448337D01*
X485622Y448344D01*
X485292Y448371D01*
X478678Y448371D01*
X478669Y448370D01*
X478661Y448371D01*
X478470Y448351D01*
X478278Y448331D01*
X478269Y448329D01*
X478260Y448328D01*
X478077Y448270D01*
X477893Y448213D01*
X477885Y448209D01*
X477876Y448206D01*
X477708Y448113D01*
X477539Y448021D01*
X477532Y448016D01*
X477524Y448011D01*
X477377Y447887D01*
X477230Y447764D01*
X477224Y447757D01*
X477217Y447751D01*
X477098Y447600D01*
X476977Y447450D01*
X476973Y447442D01*
X476968Y447435D01*
X476879Y447262D01*
X476792Y447093D01*
X476789Y447084D01*
X476785Y447076D01*
X476733Y446889D01*
X476680Y446706D01*
X476680Y446697D01*
X476677Y446688D01*
X476663Y446496D01*
X476647Y446304D01*
X476648Y446296D01*
X476648Y446287D01*
X476672Y446095D01*
X476694Y445905D01*
X476697Y445896D01*
X476698Y445887D01*
X476759Y445705D01*
X476819Y445522D01*
X476824Y445514D01*
X476826Y445506D01*
X476923Y445338D01*
X477017Y445171D01*
X477023Y445164D01*
X477027Y445157D01*
X477242Y444904D01*
X477541Y444605D01*
X478779Y441617D01*
X478779Y433972D01*
X478781Y433954D01*
X478779Y433936D01*
X478800Y433754D01*
X478819Y433571D01*
X478824Y433554D01*
X478826Y433537D01*
X478883Y433362D01*
X478937Y433186D01*
X478945Y433171D01*
X478951Y433154D01*
X479041Y432994D01*
X479129Y432832D01*
X479140Y432819D01*
X479149Y432803D01*
X479269Y432664D01*
X479386Y432523D01*
X479400Y432512D01*
X479412Y432498D01*
X479557Y432386D01*
X479700Y432271D01*
X479716Y432263D01*
X479730Y432252D01*
X479895Y432170D01*
X480057Y432085D01*
X480074Y432080D01*
X480090Y432072D01*
X480269Y432025D01*
X480444Y431974D01*
X480462Y431972D01*
X480479Y431968D01*
X480810Y431941D01*
X481319Y431941D01*
X481319Y418400D01*
X481319Y404859D01*
X480554Y404859D01*
X480531Y404857D01*
X480509Y404859D01*
X480331Y404837D01*
X480153Y404819D01*
X480132Y404813D01*
X480109Y404810D01*
X479939Y404754D01*
X479768Y404701D01*
X479749Y404691D01*
X479727Y404683D01*
X479571Y404595D01*
X479414Y404510D01*
X479397Y404495D01*
X479378Y404484D01*
X479243Y404367D01*
X479105Y404252D01*
X479091Y404234D01*
X479074Y404219D01*
X479016Y404144D01*
X477104Y402231D01*
X474863Y401303D01*
X466437Y401303D01*
X465077Y401867D01*
X465052Y401874D01*
X465028Y401886D01*
X464859Y401933D01*
X464692Y401983D01*
X464665Y401986D01*
X464639Y401993D01*
X464465Y402005D01*
X464291Y402021D01*
X464265Y402018D01*
X464238Y402020D01*
X464063Y401997D01*
X463891Y401980D01*
X463865Y401972D01*
X463839Y401968D01*
X463523Y401867D01*
X462163Y401303D01*
X453737Y401303D01*
X452377Y401867D01*
X452352Y401874D01*
X452328Y401886D01*
X452160Y401932D01*
X451992Y401983D01*
X451965Y401986D01*
X451939Y401993D01*
X451765Y402005D01*
X451591Y402021D01*
X451565Y402018D01*
X451538Y402020D01*
X451364Y401998D01*
X451191Y401980D01*
X451165Y401972D01*
X451139Y401968D01*
X450823Y401867D01*
X449463Y401303D01*
X441037Y401303D01*
X438796Y402231D01*
X437081Y403946D01*
X436153Y406187D01*
X436153Y408240D01*
X436151Y408258D01*
X436153Y408276D01*
X436132Y408458D01*
X436113Y408641D01*
X436108Y408658D01*
X436106Y408675D01*
X436049Y408850D01*
X435995Y409026D01*
X435987Y409041D01*
X435981Y409058D01*
X435891Y409218D01*
X435803Y409380D01*
X435792Y409393D01*
X435783Y409409D01*
X435663Y409548D01*
X435546Y409689D01*
X435532Y409700D01*
X435520Y409714D01*
X435375Y409826D01*
X435232Y409941D01*
X435216Y409949D01*
X435202Y409960D01*
X435037Y410042D01*
X434875Y410127D01*
X434858Y410132D01*
X434842Y410140D01*
X434663Y410187D01*
X434488Y410238D01*
X434470Y410240D01*
X434453Y410244D01*
X434122Y410271D01*
X417608Y410271D01*
X417582Y410269D01*
X417555Y410271D01*
X417381Y410249D01*
X417208Y410231D01*
X417182Y410224D01*
X417156Y410220D01*
X416990Y410165D01*
X416823Y410113D01*
X416799Y410100D01*
X416774Y410092D01*
X416622Y410005D01*
X416469Y409921D01*
X416448Y409904D01*
X416425Y409891D01*
X416172Y409676D01*
X401724Y395228D01*
X401707Y395207D01*
X401686Y395190D01*
X401579Y395052D01*
X401469Y394916D01*
X401456Y394893D01*
X401440Y394872D01*
X401362Y394715D01*
X401280Y394561D01*
X401272Y394535D01*
X401260Y394511D01*
X401215Y394342D01*
X401165Y394175D01*
X401163Y394148D01*
X401156Y394122D01*
X401129Y393792D01*
X401129Y349208D01*
X401131Y349182D01*
X401129Y349155D01*
X401151Y348981D01*
X401169Y348808D01*
X401176Y348782D01*
X401180Y348756D01*
X401235Y348590D01*
X401287Y348423D01*
X401300Y348399D01*
X401308Y348374D01*
X401395Y348222D01*
X401479Y348069D01*
X401496Y348048D01*
X401509Y348025D01*
X401724Y347772D01*
X620772Y128724D01*
X620793Y128707D01*
X620810Y128686D01*
X620948Y128579D01*
X621084Y128469D01*
X621107Y128456D01*
X621128Y128440D01*
X621285Y128362D01*
X621439Y128280D01*
X621465Y128272D01*
X621489Y128260D01*
X621658Y128215D01*
X621825Y128165D01*
X621852Y128163D01*
X621878Y128156D01*
X622208Y128129D01*
X695792Y128129D01*
X695818Y128131D01*
X695845Y128129D01*
X696019Y128151D01*
X696192Y128169D01*
X696218Y128176D01*
X696244Y128180D01*
X696410Y128235D01*
X696577Y128287D01*
X696601Y128300D01*
X696626Y128308D01*
X696778Y128395D01*
X696931Y128479D01*
X696952Y128496D01*
X696975Y128509D01*
X697228Y128724D01*
X701276Y132772D01*
X701293Y132793D01*
X701314Y132810D01*
X701421Y132948D01*
X701531Y133084D01*
X701544Y133107D01*
X701560Y133128D01*
X701638Y133285D01*
X701720Y133439D01*
X701728Y133465D01*
X701740Y133489D01*
X701785Y133658D01*
X701835Y133825D01*
X701837Y133852D01*
X701844Y133878D01*
X701871Y134208D01*
X701871Y238792D01*
X701869Y238818D01*
X701871Y238845D01*
X701849Y239019D01*
X701831Y239192D01*
X701824Y239218D01*
X701820Y239244D01*
X701765Y239410D01*
X701713Y239577D01*
X701700Y239601D01*
X701692Y239626D01*
X701605Y239778D01*
X701521Y239931D01*
X701504Y239952D01*
X701491Y239975D01*
X701276Y240228D01*
X683328Y258176D01*
X683307Y258193D01*
X683290Y258214D01*
X683152Y258321D01*
X683016Y258431D01*
X682993Y258444D01*
X682972Y258460D01*
X682815Y258538D01*
X682661Y258620D01*
X682635Y258628D01*
X682611Y258640D01*
X682442Y258685D01*
X682275Y258735D01*
X682248Y258737D01*
X682222Y258744D01*
X681892Y258771D01*
X676378Y258771D01*
X676356Y258769D01*
X676333Y258771D01*
X676156Y258749D01*
X675977Y258731D01*
X675956Y258725D01*
X675934Y258722D01*
X675764Y258666D01*
X675592Y258613D01*
X675573Y258603D01*
X675552Y258596D01*
X675396Y258507D01*
X675238Y258421D01*
X675221Y258407D01*
X675202Y258396D01*
X675067Y258279D01*
X674929Y258164D01*
X674915Y258146D01*
X674898Y258132D01*
X674789Y257990D01*
X674677Y257850D01*
X674667Y257830D01*
X674653Y257812D01*
X674501Y257517D01*
X674142Y256649D01*
X669051Y251558D01*
X662400Y248803D01*
X631200Y248803D01*
X624549Y251558D01*
X619458Y256649D01*
X616703Y263300D01*
X616703Y270500D01*
X619458Y277151D01*
X624549Y282242D01*
X631200Y284997D01*
X662400Y284997D01*
X669051Y282242D01*
X674142Y277151D01*
X674501Y276283D01*
X674512Y276263D01*
X674519Y276242D01*
X674607Y276086D01*
X674691Y275928D01*
X674706Y275911D01*
X674717Y275891D01*
X674834Y275756D01*
X674948Y275617D01*
X674965Y275603D01*
X674980Y275586D01*
X675121Y275477D01*
X675261Y275364D01*
X675280Y275353D01*
X675298Y275340D01*
X675458Y275260D01*
X675617Y275177D01*
X675638Y275170D01*
X675658Y275160D01*
X675832Y275114D01*
X676003Y275064D01*
X676026Y275062D01*
X676047Y275056D01*
X676378Y275029D01*
X683738Y275029D01*
X683769Y275032D01*
X683800Y275030D01*
X683968Y275052D01*
X684138Y275069D01*
X684168Y275078D01*
X684199Y275082D01*
X684345Y275129D01*
X687617Y275129D01*
X690605Y273891D01*
X693177Y271319D01*
X716891Y247605D01*
X718129Y244617D01*
X718129Y128383D01*
X716891Y125395D01*
X714319Y122823D01*
X707177Y115681D01*
X704605Y113109D01*
X701617Y111871D01*
X616383Y111871D01*
X613395Y113109D01*
X610823Y115681D01*
X467300Y259204D01*
X467289Y259213D01*
X467281Y259223D01*
X467133Y259341D01*
X466988Y259459D01*
X466977Y259466D01*
X466966Y259474D01*
X466797Y259561D01*
X466633Y259648D01*
X466620Y259652D01*
X466608Y259658D01*
X466426Y259709D01*
X466247Y259763D01*
X466233Y259764D01*
X466220Y259768D01*
X466035Y259782D01*
X465846Y259799D01*
X465832Y259798D01*
X465819Y259799D01*
X465634Y259776D01*
X465445Y259756D01*
X465433Y259752D01*
X465419Y259750D01*
X465242Y259692D01*
X465062Y259634D01*
X465050Y259628D01*
X465037Y259624D01*
X464874Y259531D01*
X464709Y259440D01*
X464699Y259431D01*
X464687Y259424D01*
X464546Y259301D01*
X464402Y259179D01*
X464394Y259168D01*
X464384Y259160D01*
X464269Y259011D01*
X464153Y258863D01*
X464147Y258851D01*
X464138Y258841D01*
X463987Y258545D01*
X463551Y257494D01*
X459586Y253529D01*
X454404Y251382D01*
X448796Y251382D01*
X445183Y252879D01*
X445153Y252888D01*
X445125Y252902D01*
X444961Y252946D01*
X444798Y252995D01*
X444767Y252998D01*
X444737Y253006D01*
X444406Y253033D01*
X404044Y253033D01*
X399469Y254928D01*
X369848Y284549D01*
X367953Y289124D01*
X367953Y302422D01*
X367951Y302440D01*
X367953Y302458D01*
X367932Y302640D01*
X367913Y302823D01*
X367908Y302840D01*
X367906Y302857D01*
X367849Y303032D01*
X367795Y303208D01*
X367787Y303223D01*
X367781Y303240D01*
X367691Y303400D01*
X367603Y303562D01*
X367592Y303575D01*
X367583Y303591D01*
X367463Y303730D01*
X367346Y303871D01*
X367332Y303882D01*
X367320Y303896D01*
X367175Y304008D01*
X367032Y304123D01*
X367016Y304131D01*
X367002Y304142D01*
X366837Y304224D01*
X366675Y304309D01*
X366658Y304314D01*
X366642Y304322D01*
X366463Y304369D01*
X366288Y304420D01*
X366270Y304422D01*
X366253Y304426D01*
X365922Y304453D01*
X339078Y304453D01*
X339060Y304451D01*
X339042Y304453D01*
X338860Y304432D01*
X338677Y304413D01*
X338660Y304408D01*
X338643Y304406D01*
X338468Y304349D01*
X338292Y304295D01*
X338277Y304287D01*
X338260Y304281D01*
X338100Y304191D01*
X337938Y304103D01*
X337925Y304092D01*
X337909Y304083D01*
X337770Y303963D01*
X337629Y303846D01*
X337618Y303832D01*
X337604Y303820D01*
X337492Y303675D01*
X337377Y303532D01*
X337369Y303516D01*
X337358Y303502D01*
X337276Y303337D01*
X337191Y303175D01*
X337186Y303158D01*
X337178Y303142D01*
X337131Y302963D01*
X337080Y302788D01*
X337078Y302770D01*
X337074Y302753D01*
X337047Y302422D01*
X337047Y251725D01*
X335000Y246783D01*
X331217Y243000D01*
X330883Y242862D01*
X330856Y242847D01*
X330826Y242837D01*
X330678Y242752D01*
X330528Y242672D01*
X330504Y242652D01*
X330477Y242636D01*
X330394Y242566D01*
X329206Y242074D01*
X325776Y240653D01*
X278478Y240653D01*
X278460Y240651D01*
X278442Y240653D01*
X278260Y240632D01*
X278077Y240613D01*
X278060Y240608D01*
X278043Y240606D01*
X277868Y240549D01*
X277692Y240495D01*
X277677Y240487D01*
X277660Y240481D01*
X277500Y240391D01*
X277338Y240303D01*
X277325Y240292D01*
X277309Y240283D01*
X277170Y240163D01*
X277029Y240046D01*
X277018Y240032D01*
X277004Y240020D01*
X276892Y239875D01*
X276777Y239732D01*
X276769Y239716D01*
X276758Y239702D01*
X276676Y239537D01*
X276591Y239375D01*
X276586Y239358D01*
X276578Y239342D01*
X276531Y239163D01*
X276480Y238988D01*
X276478Y238970D01*
X276474Y238953D01*
X276447Y238622D01*
X276447Y174524D01*
X274552Y169949D01*
X253051Y148448D01*
X248476Y146553D01*
X209997Y146553D01*
X209970Y146551D01*
X209944Y146553D01*
X209770Y146531D01*
X209596Y146513D01*
X209571Y146506D01*
X209544Y146502D01*
X209379Y146447D01*
X209211Y146395D01*
X209188Y146382D01*
X209163Y146374D01*
X209011Y146287D01*
X208857Y146203D01*
X208837Y146186D01*
X208814Y146173D01*
X208561Y145958D01*
X191042Y128439D01*
X191025Y128419D01*
X191004Y128401D01*
X190897Y128263D01*
X190787Y128128D01*
X190774Y128104D01*
X190758Y128083D01*
X190680Y127926D01*
X190598Y127772D01*
X190590Y127747D01*
X190578Y127722D01*
X190533Y127553D01*
X190483Y127386D01*
X190481Y127360D01*
X190474Y127334D01*
X190447Y127003D01*
X190447Y95997D01*
X190449Y95970D01*
X190447Y95944D01*
X190469Y95770D01*
X190487Y95596D01*
X190494Y95571D01*
X190498Y95544D01*
X190553Y95379D01*
X190605Y95211D01*
X190618Y95188D01*
X190626Y95163D01*
X190713Y95011D01*
X190797Y94857D01*
X190814Y94837D01*
X190827Y94814D01*
X191042Y94561D01*
X207661Y77942D01*
X207681Y77925D01*
X207699Y77904D01*
X207837Y77797D01*
X207972Y77687D01*
X207996Y77674D01*
X208017Y77658D01*
X208174Y77580D01*
X208328Y77498D01*
X208353Y77490D01*
X208378Y77478D01*
X208547Y77433D01*
X208714Y77383D01*
X208740Y77381D01*
X208766Y77374D01*
X209097Y77347D01*
X310122Y77347D01*
X310140Y77349D01*
X310158Y77347D01*
X310340Y77368D01*
X310523Y77387D01*
X310540Y77392D01*
X310557Y77394D01*
X310732Y77451D01*
X310908Y77505D01*
X310923Y77513D01*
X310940Y77519D01*
X311100Y77609D01*
X311262Y77697D01*
X311275Y77708D01*
X311291Y77717D01*
X311430Y77837D01*
X311571Y77954D01*
X311582Y77968D01*
X311596Y77980D01*
X311708Y78125D01*
X311823Y78268D01*
X311831Y78284D01*
X311842Y78298D01*
X311924Y78463D01*
X312009Y78625D01*
X312014Y78642D01*
X312022Y78658D01*
X312069Y78837D01*
X312120Y79012D01*
X312122Y79030D01*
X312126Y79047D01*
X312153Y79378D01*
X312153Y92776D01*
X314048Y97351D01*
X316339Y99642D01*
X316354Y99660D01*
X316372Y99676D01*
X316482Y99815D01*
X316594Y99953D01*
X316605Y99974D01*
X316620Y99993D01*
X316700Y100152D01*
X316783Y100309D01*
X316790Y100332D01*
X316800Y100353D01*
X316847Y100524D01*
X316898Y100695D01*
X316900Y100718D01*
X316906Y100742D01*
X316918Y100918D01*
X316934Y101096D01*
X316931Y101120D01*
X316933Y101143D01*
X316910Y101318D01*
X316891Y101496D01*
X316883Y101519D01*
X316880Y101542D01*
X316823Y101710D01*
X316769Y101880D01*
X316758Y101901D01*
X316750Y101923D01*
X316660Y102077D01*
X316574Y102232D01*
X316559Y102250D01*
X316547Y102271D01*
X316429Y102404D01*
X316314Y102539D01*
X316295Y102554D01*
X316279Y102572D01*
X316137Y102679D01*
X315998Y102789D01*
X315977Y102799D01*
X315958Y102814D01*
X315797Y102891D01*
X315639Y102971D01*
X315616Y102977D01*
X315594Y102988D01*
X315423Y103031D01*
X315251Y103079D01*
X315227Y103081D01*
X315204Y103087D01*
X314873Y103109D01*
X281823Y102623D01*
X281762Y102616D01*
X281702Y102617D01*
X281563Y102593D01*
X281423Y102577D01*
X281365Y102558D01*
X281305Y102548D01*
X281174Y102497D01*
X281040Y102453D01*
X280987Y102424D01*
X280930Y102401D01*
X280760Y102297D01*
X280688Y102256D01*
X280672Y102242D01*
X280648Y102227D01*
X266211Y91590D01*
X266152Y91536D01*
X265992Y91403D01*
X264960Y90388D01*
X264357Y90145D01*
X264278Y90103D01*
X264196Y90071D01*
X264076Y89997D01*
X264001Y89958D01*
X263965Y89928D01*
X263914Y89897D01*
X263390Y89511D01*
X261985Y89164D01*
X261910Y89137D01*
X261711Y89075D01*
X260369Y88533D01*
X259719Y88538D01*
X259630Y88530D01*
X259542Y88532D01*
X259403Y88509D01*
X259318Y88502D01*
X259274Y88488D01*
X259214Y88479D01*
X258583Y88323D01*
X257152Y88540D01*
X257072Y88544D01*
X256865Y88563D01*
X229319Y88799D01*
X229283Y88795D01*
X229248Y88798D01*
X229084Y88777D01*
X228918Y88762D01*
X228884Y88752D01*
X228849Y88748D01*
X228691Y88695D01*
X228532Y88647D01*
X228501Y88631D01*
X228467Y88619D01*
X228432Y88599D01*
X217739Y88599D01*
X210299Y96039D01*
X210299Y106561D01*
X217739Y114001D01*
X228339Y114001D01*
X228479Y113930D01*
X228641Y113844D01*
X228659Y113838D01*
X228675Y113830D01*
X228852Y113781D01*
X229027Y113729D01*
X229045Y113727D01*
X229063Y113722D01*
X229393Y113692D01*
X253280Y113488D01*
X253364Y113495D01*
X253449Y113493D01*
X253564Y113513D01*
X253681Y113524D01*
X253762Y113548D01*
X253845Y113563D01*
X253954Y113605D01*
X254067Y113639D01*
X254141Y113678D01*
X254220Y113709D01*
X254347Y113787D01*
X254423Y113828D01*
X254455Y113854D01*
X254502Y113884D01*
X268652Y124310D01*
X268654Y124311D01*
X268655Y124312D01*
X268905Y124530D01*
X269795Y125447D01*
X270549Y125772D01*
X270606Y125804D01*
X270667Y125828D01*
X270827Y125926D01*
X270901Y125968D01*
X270921Y125985D01*
X270949Y126002D01*
X271610Y126489D01*
X272851Y126796D01*
X272852Y126796D01*
X272854Y126796D01*
X273168Y126903D01*
X274341Y127409D01*
X275162Y127421D01*
X275227Y127428D01*
X275292Y127427D01*
X275478Y127457D01*
X275562Y127467D01*
X275587Y127475D01*
X275620Y127480D01*
X276417Y127677D01*
X277680Y127486D01*
X277682Y127486D01*
X277683Y127485D01*
X278015Y127463D01*
X326893Y128182D01*
X331495Y126354D01*
X333504Y124403D01*
X333514Y124395D01*
X333521Y124386D01*
X333671Y124270D01*
X333820Y124152D01*
X333830Y124147D01*
X333839Y124140D01*
X334008Y124056D01*
X334178Y123969D01*
X334189Y123966D01*
X334200Y123960D01*
X334384Y123911D01*
X334566Y123860D01*
X334577Y123859D01*
X334589Y123856D01*
X334920Y123829D01*
X366917Y123829D01*
X369905Y122591D01*
X397891Y94605D01*
X399129Y91617D01*
X399129Y40383D01*
X397891Y37395D01*
X395319Y34823D01*
X391677Y31181D01*
X389105Y28609D01*
X386117Y27371D01*
X138883Y27371D01*
G37*
%LPD*%
%LPC*%
G36*
X54063Y454063D02*
X54063Y454063D01*
X54063Y481504D01*
X54664Y481445D01*
X57724Y480836D01*
X60710Y479931D01*
X63591Y478737D01*
X66343Y477266D01*
X68936Y475533D01*
X71348Y473554D01*
X73554Y471348D01*
X75533Y468936D01*
X77266Y466343D01*
X78737Y463591D01*
X79931Y460710D01*
X80836Y457724D01*
X81445Y454664D01*
X81504Y454063D01*
X54063Y454063D01*
G37*
%LPD*%
%LPC*%
G36*
X704063Y454063D02*
X704063Y454063D01*
X704063Y481504D01*
X704664Y481445D01*
X707724Y480836D01*
X710710Y479931D01*
X713591Y478737D01*
X716343Y477266D01*
X718936Y475533D01*
X721348Y473554D01*
X723554Y471348D01*
X725533Y468936D01*
X727266Y466343D01*
X728737Y463591D01*
X729931Y460710D01*
X730836Y457724D01*
X731445Y454664D01*
X731504Y454063D01*
X704063Y454063D01*
G37*
%LPD*%
%LPC*%
G36*
X704063Y54063D02*
X704063Y54063D01*
X704063Y81504D01*
X704664Y81445D01*
X707724Y80836D01*
X710710Y79931D01*
X713591Y78737D01*
X716343Y77266D01*
X718936Y75533D01*
X721348Y73554D01*
X723554Y71348D01*
X725533Y68936D01*
X727266Y66343D01*
X728737Y63591D01*
X729931Y60710D01*
X730836Y57724D01*
X731445Y54664D01*
X731504Y54063D01*
X704063Y54063D01*
G37*
%LPD*%
%LPC*%
G36*
X54063Y54063D02*
X54063Y54063D01*
X54063Y81504D01*
X54664Y81445D01*
X57724Y80836D01*
X60710Y79931D01*
X63591Y78737D01*
X66343Y77266D01*
X68936Y75533D01*
X71348Y73554D01*
X73554Y71348D01*
X75533Y68936D01*
X77266Y66343D01*
X78737Y63591D01*
X79931Y60710D01*
X80836Y57724D01*
X81445Y54664D01*
X81504Y54063D01*
X54063Y54063D01*
G37*
%LPD*%
%LPC*%
G36*
X18496Y454063D02*
X18496Y454063D01*
X18555Y454664D01*
X19164Y457724D01*
X20069Y460710D01*
X21263Y463591D01*
X22734Y466343D01*
X24467Y468936D01*
X26446Y471348D01*
X28652Y473554D01*
X31064Y475533D01*
X33657Y477266D01*
X36409Y478737D01*
X39290Y479931D01*
X42276Y480836D01*
X45336Y481445D01*
X45937Y481504D01*
X45937Y454063D01*
X18496Y454063D01*
G37*
%LPD*%
%LPC*%
G36*
X668496Y454063D02*
X668496Y454063D01*
X668555Y454664D01*
X669164Y457724D01*
X670069Y460710D01*
X671263Y463591D01*
X672734Y466343D01*
X674467Y468936D01*
X676446Y471348D01*
X678652Y473554D01*
X681064Y475533D01*
X683657Y477266D01*
X686409Y478737D01*
X689290Y479931D01*
X692276Y480836D01*
X695336Y481445D01*
X695937Y481504D01*
X695937Y454063D01*
X668496Y454063D01*
G37*
%LPD*%
%LPC*%
G36*
X54063Y45937D02*
X54063Y45937D01*
X81504Y45937D01*
X81445Y45336D01*
X80836Y42276D01*
X79931Y39290D01*
X78737Y36409D01*
X77266Y33657D01*
X75533Y31064D01*
X73554Y28652D01*
X71348Y26446D01*
X68936Y24467D01*
X66343Y22734D01*
X63591Y21263D01*
X60710Y20069D01*
X57724Y19164D01*
X54664Y18555D01*
X54063Y18496D01*
X54063Y45937D01*
G37*
%LPD*%
%LPC*%
G36*
X704063Y45937D02*
X704063Y45937D01*
X731504Y45937D01*
X731445Y45336D01*
X730836Y42276D01*
X729931Y39290D01*
X728737Y36409D01*
X727266Y33657D01*
X725533Y31064D01*
X723554Y28652D01*
X721348Y26446D01*
X718936Y24467D01*
X716343Y22734D01*
X713591Y21263D01*
X710710Y20069D01*
X707724Y19164D01*
X704664Y18555D01*
X704063Y18496D01*
X704063Y45937D01*
G37*
%LPD*%
%LPC*%
G36*
X668496Y54063D02*
X668496Y54063D01*
X668555Y54664D01*
X669164Y57724D01*
X670069Y60710D01*
X671263Y63591D01*
X672734Y66343D01*
X674467Y68936D01*
X676446Y71348D01*
X678652Y73554D01*
X681064Y75533D01*
X683657Y77266D01*
X686409Y78737D01*
X689290Y79931D01*
X692276Y80836D01*
X695336Y81445D01*
X695937Y81504D01*
X695937Y54063D01*
X668496Y54063D01*
G37*
%LPD*%
%LPC*%
G36*
X18496Y54063D02*
X18496Y54063D01*
X18555Y54664D01*
X19164Y57724D01*
X20069Y60710D01*
X21263Y63591D01*
X22734Y66343D01*
X24467Y68936D01*
X26446Y71348D01*
X28652Y73554D01*
X31064Y75533D01*
X33657Y77266D01*
X36409Y78737D01*
X39290Y79931D01*
X42276Y80836D01*
X45336Y81445D01*
X45937Y81504D01*
X45937Y54063D01*
X18496Y54063D01*
G37*
%LPD*%
%LPC*%
G36*
X704063Y445937D02*
X704063Y445937D01*
X731504Y445937D01*
X731445Y445336D01*
X730836Y442276D01*
X729931Y439290D01*
X728737Y436409D01*
X727266Y433657D01*
X725533Y431064D01*
X723554Y428652D01*
X721348Y426446D01*
X718936Y424467D01*
X716343Y422734D01*
X713591Y421263D01*
X710710Y420069D01*
X707724Y419164D01*
X704664Y418555D01*
X704063Y418496D01*
X704063Y445937D01*
G37*
%LPD*%
%LPC*%
G36*
X54063Y445937D02*
X54063Y445937D01*
X81504Y445937D01*
X81445Y445336D01*
X80836Y442276D01*
X79931Y439290D01*
X78737Y436409D01*
X77266Y433657D01*
X75533Y431064D01*
X73554Y428652D01*
X71348Y426446D01*
X68936Y424467D01*
X66343Y422734D01*
X63591Y421263D01*
X60710Y420069D01*
X57724Y419164D01*
X54664Y418555D01*
X54063Y418496D01*
X54063Y445937D01*
G37*
%LPD*%
%LPC*%
G36*
X45336Y18555D02*
X45336Y18555D01*
X42276Y19164D01*
X39290Y20069D01*
X36409Y21263D01*
X33657Y22734D01*
X31064Y24467D01*
X28652Y26446D01*
X26446Y28652D01*
X24467Y31064D01*
X22734Y33657D01*
X21263Y36409D01*
X20069Y39290D01*
X19164Y42276D01*
X18555Y45336D01*
X18496Y45937D01*
X45937Y45937D01*
X45937Y18496D01*
X45336Y18555D01*
G37*
%LPD*%
%LPC*%
G36*
X695336Y18555D02*
X695336Y18555D01*
X692276Y19164D01*
X689290Y20069D01*
X686409Y21263D01*
X683657Y22734D01*
X681064Y24467D01*
X678652Y26446D01*
X676446Y28652D01*
X674467Y31064D01*
X672734Y33657D01*
X671263Y36409D01*
X670069Y39290D01*
X669164Y42276D01*
X668555Y45336D01*
X668496Y45937D01*
X695937Y45937D01*
X695937Y18496D01*
X695336Y18555D01*
G37*
%LPD*%
%LPC*%
G36*
X695336Y418555D02*
X695336Y418555D01*
X692276Y419164D01*
X689290Y420069D01*
X686409Y421263D01*
X683657Y422734D01*
X681064Y424467D01*
X678652Y426446D01*
X676446Y428652D01*
X674467Y431064D01*
X672734Y433657D01*
X671263Y436409D01*
X670069Y439290D01*
X669164Y442276D01*
X668555Y445336D01*
X668496Y445937D01*
X695937Y445937D01*
X695937Y418496D01*
X695336Y418555D01*
G37*
%LPD*%
%LPC*%
G36*
X45336Y418555D02*
X45336Y418555D01*
X42276Y419164D01*
X39290Y420069D01*
X36409Y421263D01*
X33657Y422734D01*
X31064Y424467D01*
X28652Y426446D01*
X26446Y428652D01*
X24467Y431064D01*
X22734Y433657D01*
X21263Y436409D01*
X20069Y439290D01*
X19164Y442276D01*
X18555Y445336D01*
X18496Y445937D01*
X45937Y445937D01*
X45937Y418496D01*
X45336Y418555D01*
G37*
%LPD*%
%LPC*%
G36*
X650799Y170899D02*
X650799Y170899D01*
X650799Y181441D01*
X659753Y181441D01*
X661643Y181192D01*
X663484Y180699D01*
X665245Y179969D01*
X666896Y179016D01*
X668408Y177856D01*
X669756Y176508D01*
X670916Y174996D01*
X671869Y173345D01*
X672599Y171584D01*
X672782Y170899D01*
X650799Y170899D01*
G37*
%LPD*%
%LPC*%
G36*
X620818Y170899D02*
X620818Y170899D01*
X621001Y171584D01*
X621731Y173345D01*
X622684Y174996D01*
X623844Y176508D01*
X625192Y177856D01*
X626704Y179016D01*
X628355Y179969D01*
X630116Y180699D01*
X631957Y181192D01*
X633847Y181441D01*
X642801Y181441D01*
X642801Y170899D01*
X620818Y170899D01*
G37*
%LPD*%
%LPC*%
G36*
X650799Y152359D02*
X650799Y152359D01*
X650799Y162901D01*
X672782Y162901D01*
X672599Y162216D01*
X671869Y160455D01*
X670916Y158804D01*
X669756Y157292D01*
X668408Y155944D01*
X666896Y154784D01*
X665245Y153831D01*
X663484Y153101D01*
X661643Y152608D01*
X659753Y152359D01*
X650799Y152359D01*
G37*
%LPD*%
%LPC*%
G36*
X633847Y152359D02*
X633847Y152359D01*
X631957Y152608D01*
X630116Y153101D01*
X628355Y153831D01*
X626704Y154784D01*
X625192Y155944D01*
X623844Y157292D01*
X622684Y158804D01*
X621731Y160455D01*
X621001Y162216D01*
X620818Y162901D01*
X642801Y162901D01*
X642801Y152359D01*
X633847Y152359D01*
G37*
%LPD*%
%LPC*%
G36*
X453631Y231951D02*
X453631Y231951D01*
X453631Y240462D01*
X455967Y240462D01*
X462142Y234287D01*
X462142Y231951D01*
X453631Y231951D01*
G37*
%LPD*%
%LPC*%
G36*
X441058Y231951D02*
X441058Y231951D01*
X441058Y234287D01*
X447233Y240462D01*
X449569Y240462D01*
X449569Y231951D01*
X441058Y231951D01*
G37*
%LPD*%
%LPC*%
G36*
X453631Y219378D02*
X453631Y219378D01*
X453631Y227889D01*
X462142Y227889D01*
X462142Y225553D01*
X455967Y219378D01*
X453631Y219378D01*
G37*
%LPD*%
%LPC*%
G36*
X447233Y219378D02*
X447233Y219378D01*
X441058Y225553D01*
X441058Y227889D01*
X449569Y227889D01*
X449569Y219378D01*
X447233Y219378D01*
G37*
%LPD*%
%LPC*%
G36*
X485381Y420431D02*
X485381Y420431D01*
X485381Y431941D01*
X486685Y431941D01*
X487331Y431768D01*
X487910Y431433D01*
X488383Y430960D01*
X488718Y430381D01*
X488891Y429735D01*
X488891Y420431D01*
X485381Y420431D01*
G37*
%LPD*%
%LPC*%
G36*
X485381Y404859D02*
X485381Y404859D01*
X485381Y416369D01*
X488891Y416369D01*
X488891Y407065D01*
X488718Y406419D01*
X488383Y405840D01*
X487910Y405367D01*
X487331Y405032D01*
X486685Y404859D01*
X485381Y404859D01*
G37*
%LPD*%
%LPC*%
G36*
X325631Y204631D02*
X325631Y204631D01*
X325631Y210484D01*
X325971Y210416D01*
X327450Y209804D01*
X328782Y208914D01*
X329914Y207782D01*
X330804Y206450D01*
X331416Y204971D01*
X331484Y204631D01*
X325631Y204631D01*
G37*
%LPD*%
%LPC*%
G36*
X325631Y230031D02*
X325631Y230031D01*
X325631Y235884D01*
X325971Y235816D01*
X327450Y235204D01*
X328782Y234314D01*
X329914Y233182D01*
X330804Y231850D01*
X331416Y230371D01*
X331484Y230031D01*
X325631Y230031D01*
G37*
%LPD*%
%LPC*%
G36*
X325631Y200569D02*
X325631Y200569D01*
X331484Y200569D01*
X331416Y200229D01*
X330804Y198750D01*
X329914Y197418D01*
X328782Y196286D01*
X327450Y195396D01*
X325971Y194784D01*
X325631Y194716D01*
X325631Y200569D01*
G37*
%LPD*%
%LPC*%
G36*
X315716Y230031D02*
X315716Y230031D01*
X315784Y230371D01*
X316396Y231850D01*
X317286Y233182D01*
X318418Y234314D01*
X319750Y235204D01*
X321229Y235816D01*
X321569Y235884D01*
X321569Y230031D01*
X315716Y230031D01*
G37*
%LPD*%
%LPC*%
G36*
X325631Y225969D02*
X325631Y225969D01*
X331484Y225969D01*
X331416Y225629D01*
X330804Y224150D01*
X329914Y222818D01*
X328782Y221686D01*
X327450Y220796D01*
X325971Y220184D01*
X325631Y220116D01*
X325631Y225969D01*
G37*
%LPD*%
%LPC*%
G36*
X315716Y204631D02*
X315716Y204631D01*
X315784Y204971D01*
X316396Y206450D01*
X317286Y207782D01*
X318418Y208914D01*
X319750Y209804D01*
X319958Y209890D01*
X321229Y210416D01*
X321569Y210484D01*
X321569Y204631D01*
X315716Y204631D01*
G37*
%LPD*%
%LPC*%
G36*
X321229Y194784D02*
X321229Y194784D01*
X319750Y195396D01*
X318418Y196286D01*
X317286Y197418D01*
X316396Y198750D01*
X315784Y200229D01*
X315716Y200569D01*
X321569Y200569D01*
X321569Y194716D01*
X321229Y194784D01*
G37*
%LPD*%
%LPC*%
G36*
X321229Y220184D02*
X321229Y220184D01*
X319750Y220796D01*
X318418Y221686D01*
X317286Y222818D01*
X316396Y224150D01*
X315784Y225629D01*
X315716Y225969D01*
X321569Y225969D01*
X321569Y220116D01*
X321229Y220184D01*
G37*
%LPD*%
%LPC*%
G36*
X699999Y449999D02*
X699999Y449999D01*
X699999Y450001D01*
X700001Y450001D01*
X700001Y449999D01*
X699999Y449999D01*
G37*
%LPD*%
%LPC*%
G36*
X49999Y449999D02*
X49999Y449999D01*
X49999Y450001D01*
X50001Y450001D01*
X50001Y449999D01*
X49999Y449999D01*
G37*
%LPD*%
%LPC*%
G36*
X699999Y49999D02*
X699999Y49999D01*
X699999Y50001D01*
X700001Y50001D01*
X700001Y49999D01*
X699999Y49999D01*
G37*
%LPD*%
%LPC*%
G36*
X49999Y49999D02*
X49999Y49999D01*
X49999Y50001D01*
X50001Y50001D01*
X50001Y49999D01*
X49999Y49999D01*
G37*
%LPD*%
D10*
X451600Y229920D03*
D11*
X451600Y265480D03*
D12*
X457950Y418400D03*
X457950Y366400D03*
X445250Y418400D03*
X470650Y418400D03*
X483350Y418400D03*
X445250Y366400D03*
X470650Y366400D03*
X483350Y366400D03*
D13*
X324600Y354300D03*
X324600Y379700D03*
X324600Y405100D03*
D14*
X223000Y101300D03*
X223000Y202900D03*
D15*
X482000Y316900D03*
X380400Y316900D03*
D13*
X324600Y64900D03*
X324600Y90300D03*
X324600Y115700D03*
X323600Y202600D03*
X323600Y228000D03*
X323600Y253400D03*
D14*
X223000Y303500D03*
X223000Y405100D03*
D16*
X634800Y166900D02*
X658800Y166900D01*
X658800Y216900D02*
X634800Y216900D01*
X634800Y266900D02*
X658800Y266900D01*
X658800Y316900D02*
X634800Y316900D01*
X95300Y303100D02*
X71300Y303100D01*
X71300Y253100D02*
X95300Y253100D01*
X95300Y203100D02*
X71300Y203100D01*
D17*
X700000Y50000D03*
X700000Y450000D03*
X50000Y450000D03*
X50000Y50000D03*
D18*
X223000Y405100D02*
X324600Y405100D01*
D19*
X324600Y430000D01*
X470650Y440000D02*
X470650Y418400D01*
X334600Y440000D02*
X324600Y430000D01*
X334600Y440000D02*
X470650Y440000D01*
D18*
X223000Y303500D02*
X83300Y303100D01*
X324600Y90300D02*
X324600Y64900D01*
X323600Y253400D02*
X323660Y253402D01*
X323721Y253407D01*
X323780Y253416D01*
X323839Y253429D01*
X323898Y253445D01*
X323955Y253465D01*
X324010Y253488D01*
X324065Y253515D01*
X324117Y253544D01*
X324168Y253577D01*
X324217Y253613D01*
X324263Y253651D01*
X324307Y253693D01*
X324349Y253737D01*
X324387Y253783D01*
X324423Y253832D01*
X324456Y253883D01*
X324485Y253935D01*
X324512Y253990D01*
X324535Y254045D01*
X324555Y254102D01*
X324571Y254161D01*
X324584Y254220D01*
X324593Y254279D01*
X324598Y254340D01*
X324600Y254400D01*
X324600Y317000D01*
X324600Y323000D01*
X324600Y354300D01*
X324600Y379700D01*
X264000Y253100D02*
X83300Y253100D01*
X264000Y253100D02*
X323300Y253100D01*
X323600Y253400D01*
X264000Y253100D02*
X264000Y177000D01*
X246000Y159000D01*
X204000Y159000D01*
X178000Y133000D01*
X178000Y90000D01*
X203100Y64900D01*
X324600Y64900D01*
X324600Y323000D02*
X325500Y323900D01*
X380400Y316900D02*
X381300Y316000D01*
X380400Y316900D02*
X324700Y316900D01*
X324600Y317000D01*
X380400Y316900D02*
X380400Y291600D01*
X406520Y265480D02*
X451600Y265480D01*
X406520Y265480D02*
X380400Y291600D01*
X258000Y101000D02*
X223000Y101300D01*
X258000Y101000D02*
X277000Y115000D01*
X324600Y115700D01*
D19*
X483350Y366400D02*
X498400Y366400D01*
X508000Y376000D01*
X508000Y438000D01*
X181000Y424000D02*
X181000Y375000D01*
X65000Y347000D02*
X34000Y316000D01*
X34000Y142000D01*
X384500Y35500D02*
X391000Y42000D01*
X391000Y90000D01*
X365300Y115700D01*
X324600Y115700D01*
X153000Y347000D02*
X181000Y375000D01*
X153000Y347000D02*
X65000Y347000D01*
X34000Y142000D02*
X140500Y35500D01*
X384500Y35500D01*
X181000Y424000D02*
X213500Y456500D01*
X489500Y456500D01*
X508000Y438000D01*
D18*
X223000Y202900D02*
X83300Y203100D01*
D19*
X445250Y418400D02*
X457950Y418400D01*
X646800Y266900D02*
X667900Y266900D01*
X445250Y418400D02*
X445000Y418650D01*
X646800Y266900D02*
X685900Y266900D01*
X686000Y267000D01*
X445250Y418400D02*
X413400Y418400D01*
X393000Y398000D01*
X393000Y345000D01*
X618000Y120000D02*
X700000Y120000D01*
X710000Y130000D01*
X710000Y243000D01*
X618000Y120000D02*
X393000Y345000D01*
X686000Y267000D02*
X710000Y243000D01*
X646900Y167000D02*
X646800Y166900D01*
D18*
X646800Y316900D02*
X482000Y316900D01*
D19*
X445250Y343750D02*
X445250Y366400D01*
X472100Y316900D02*
X482000Y316900D01*
X472100Y316900D02*
X445250Y343750D01*
X457950Y366400D02*
X470650Y366400D01*
X457950Y366400D02*
X457950Y382050D01*
X428500Y387500D02*
X421000Y380000D01*
X421000Y349000D01*
X553100Y216900D02*
X646800Y216900D01*
X553100Y216900D02*
X421000Y349000D01*
X457950Y382050D02*
X452500Y387500D01*
X428500Y387500D01*
M02*
