M48
;GenerationSoftware,Autodesk,EAGLE,9.0.0*%
;CreationDate,2023-01-31T01:08:40Z*%
FMAT,2
ICI,OFF
METRIC,TZ,000.000
T4C0.610
T3C0.813
T2C1.600
T1C3.000
%
G90
M71
T1
X70000Y5000
X70000Y45000
X5000Y45000
X5000Y5000
T2
X64680Y16690
X64680Y21690
X64680Y26690
X64680Y31690
X8330Y30310
X8330Y25310
X8330Y20310
T3
X45160Y22992
X45160Y26548
X22300Y10130
X22300Y20290
X48200Y31690
X38040Y31690
X22300Y30350
X22300Y40510
T4
X32460Y35430
X32460Y37970
X32460Y40510
X32460Y6490
X32460Y9030
X32460Y11570
X32360Y20260
X32360Y22800
X32360Y25340
M30