G04 EAGLE Gerber X2 export*
%TF.Part,Single*%
%TF.FileFunction,Profile,NP*%
%TF.FilePolarity,Positive*%
%TF.GenerationSoftware,Autodesk,EAGLE,9.0.0*%
%TF.CreationDate,2023-01-31T01:08:40Z*%
G75*
%MOMM*%
%FSLAX34Y34*%
%LPD*%
%AMOC8*
5,1,8,0,0,1.08239X$1,22.5*%
G01*
%ADD10C,0.254000*%


D10*
X0Y50000D02*
X190Y45642D01*
X760Y41318D01*
X1704Y37059D01*
X3015Y32899D01*
X4685Y28869D01*
X6699Y25000D01*
X9042Y21321D01*
X11698Y17861D01*
X14645Y14645D01*
X17861Y11698D01*
X21321Y9042D01*
X25000Y6699D01*
X28869Y4685D01*
X32899Y3015D01*
X37059Y1704D01*
X41318Y760D01*
X45642Y190D01*
X50000Y0D01*
X700000Y0D01*
X704358Y190D01*
X708682Y760D01*
X712941Y1704D01*
X717101Y3015D01*
X721131Y4685D01*
X725000Y6699D01*
X728679Y9042D01*
X732139Y11698D01*
X735355Y14645D01*
X738302Y17861D01*
X740958Y21321D01*
X743301Y25000D01*
X745315Y28869D01*
X746985Y32899D01*
X748296Y37059D01*
X749240Y41318D01*
X749810Y45642D01*
X750000Y50000D01*
X750000Y450000D01*
X749810Y454358D01*
X749240Y458682D01*
X748296Y462941D01*
X746985Y467101D01*
X745315Y471131D01*
X743301Y475000D01*
X740958Y478679D01*
X738302Y482139D01*
X735355Y485355D01*
X732139Y488302D01*
X728679Y490958D01*
X725000Y493301D01*
X721131Y495315D01*
X717101Y496985D01*
X712941Y498296D01*
X708682Y499240D01*
X704358Y499810D01*
X700000Y500000D01*
X50000Y500000D01*
X45642Y499810D01*
X41318Y499240D01*
X37059Y498296D01*
X32899Y496985D01*
X28869Y495315D01*
X25000Y493301D01*
X21321Y490958D01*
X17861Y488302D01*
X14645Y485355D01*
X11698Y482139D01*
X9042Y478679D01*
X6699Y475000D01*
X4685Y471131D01*
X3015Y467101D01*
X1704Y462941D01*
X760Y458682D01*
X190Y454358D01*
X0Y450000D01*
X0Y50000D01*
M02*
