G04 EAGLE Gerber X2 export*
%TF.Part,Single*%
%TF.FileFunction,Soldermask,Bot,1*%
%TF.FilePolarity,Negative*%
%TF.GenerationSoftware,Autodesk,EAGLE,9.0.0*%
%TF.CreationDate,2023-01-31T01:08:40Z*%
G75*
%MOMM*%
%FSLAX34Y34*%
%LPD*%
%AMOC8*
5,1,8,0,0,1.08239X$1,22.5*%
G01*
%ADD10P,1.951982X8X292.500000*%
%ADD11C,1.803400*%
%ADD12R,0.803200X2.403200*%
%ADD13C,1.320800*%
%ADD14P,1.649562X8X112.500000*%
%ADD15P,1.649562X8X202.500000*%
%ADD16C,2.603200*%
%ADD17C,6.045200*%


D10*
X451600Y229920D03*
D11*
X451600Y265480D03*
D12*
X457950Y418400D03*
X457950Y366400D03*
X445250Y418400D03*
X470650Y418400D03*
X483350Y418400D03*
X445250Y366400D03*
X470650Y366400D03*
X483350Y366400D03*
D13*
X324600Y354300D03*
X324600Y379700D03*
X324600Y405100D03*
D14*
X223000Y101300D03*
X223000Y202900D03*
D15*
X482000Y316900D03*
X380400Y316900D03*
D13*
X324600Y64900D03*
X324600Y90300D03*
X324600Y115700D03*
X323600Y202600D03*
X323600Y228000D03*
X323600Y253400D03*
D14*
X223000Y303500D03*
X223000Y405100D03*
D16*
X634800Y166900D02*
X658800Y166900D01*
X658800Y216900D02*
X634800Y216900D01*
X634800Y266900D02*
X658800Y266900D01*
X658800Y316900D02*
X634800Y316900D01*
X95300Y303100D02*
X71300Y303100D01*
X71300Y253100D02*
X95300Y253100D01*
X95300Y203100D02*
X71300Y203100D01*
D17*
X700000Y50000D03*
X700000Y450000D03*
X50000Y450000D03*
X50000Y50000D03*
M02*
