G04 EAGLE Gerber RS-274X export*
G75*
%MOMM*%
%FSLAX34Y34*%
%LPD*%
%INTop Copper*%
%IPPOS*%
%AMOC8*
5,1,8,0,0,1.08239X$1,22.5*%
G01*
%ADD10C,2.775000*%
%ADD11R,3.960000X3.960000*%
%ADD12P,1.429621X8X22.500000*%
%ADD13P,1.429621X8X202.500000*%
%ADD14C,0.152400*%
%ADD15C,0.200000*%
%ADD16C,0.254000*%
%ADD17C,0.304800*%
%ADD18C,0.406400*%
%ADD19C,0.508000*%
%ADD20C,0.609600*%
%ADD21C,0.812800*%
%ADD22C,1.016000*%
%ADD23C,2.540000*%
%ADD24C,1.270000*%


D10*
X227550Y94900D03*
X95450Y94900D03*
D11*
X161500Y94900D03*
D12*
X72600Y336200D03*
X98000Y336200D03*
D13*
X301200Y336200D03*
X199600Y336200D03*
D14*
X301200Y336200D02*
X326600Y336200D01*
X339300Y323500D01*
X339300Y310800D01*
X326600Y298100D01*
X148800Y298100D01*
D15*
X136100Y285400D01*
X136100Y272700D01*
X138800Y270000D01*
X311000Y270000D01*
X315000Y266000D01*
D16*
X315000Y264000D01*
X313000Y262000D01*
X149000Y262000D01*
X149000Y254000D01*
D17*
X316000Y254000D01*
D18*
X316000Y245000D01*
X149000Y245000D01*
D19*
X149000Y237000D01*
X316000Y237000D01*
D20*
X316000Y224000D01*
X149000Y224000D01*
D21*
X149000Y209000D01*
X155000Y203000D01*
X316000Y203000D01*
D22*
X353000Y166000D01*
X353000Y37000D01*
X345000Y29000D01*
X332000Y29000D01*
X324000Y37000D01*
X324000Y150000D01*
D23*
X312000Y162000D01*
X297000Y162000D01*
X288000Y153000D01*
X288000Y48000D01*
X279000Y39000D01*
X170000Y39000D01*
D14*
X161500Y47500D02*
X161000Y48000D01*
D23*
X161500Y47500D02*
X170000Y39000D01*
X161500Y47500D02*
X161500Y94900D01*
D22*
X199600Y336200D02*
X98000Y336200D01*
D24*
X72600Y336200D02*
X72600Y117750D01*
X95450Y94900D01*
D19*
X95450Y179450D01*
X98000Y182000D01*
X101000Y182000D01*
X104000Y179000D01*
X104000Y141000D01*
X107000Y138000D01*
X111000Y138000D02*
X114000Y141000D01*
X114000Y178000D01*
X117000Y181000D01*
X121000Y181000D01*
X124000Y178000D01*
X124000Y142000D02*
X127000Y139000D01*
X136000Y139000D01*
X145000Y148000D02*
X145000Y181000D01*
X152000Y188000D01*
X163000Y188000D01*
X169000Y182000D01*
X169000Y146000D02*
X176000Y139000D01*
X190000Y139000D01*
X197000Y146000D01*
X197000Y184000D01*
X202000Y189000D01*
X217000Y189000D01*
X217000Y144000D01*
X258000Y144000D01*
X258000Y95000D01*
D14*
X257900Y94900D01*
D19*
X227550Y94900D01*
X111000Y138000D02*
X107000Y138000D01*
X124000Y142000D02*
X124000Y178000D01*
X145000Y148000D02*
X136000Y139000D01*
X169000Y146000D02*
X169000Y182000D01*
M02*
